<svg width="519" height="406" viewBox="0 0 519 406" fill="none" xmlns="http://www.w3.org/2000/svg">
<path d="M489.822 205.199C452.305 154.798 388.83 204.536 356.809 91.9861C324.787 -20.5635 191.205 -19.7109 101.393 52.0064C11.3911 123.818 9.87533 281.653 51.8446 329.591H472.864C472.958 329.591 538.991 271.327 489.822 205.199Z" fill="url(#paint0_linear)"/>
<path d="M519 325.422H0.400391C0.400391 325.422 63.2122 376.202 283.101 367.865C502.989 359.528 519 325.422 519 325.422Z" fill="url(#paint1_linear)"/>
<path d="M273.91 53.6169H202.855V151.387H273.91V53.6169Z" fill="url(#paint2_linear)"/>
<path d="M267.847 59.017H208.92V145.987H267.847V59.017Z" fill="url(#paint3_linear)"/>
<path d="M127.35 353.749C129.055 353.749 130.571 352.518 130.95 350.907L139.856 312.917H123.561V350.054C123.655 352.139 125.266 353.749 127.35 353.749Z" fill="url(#paint4_linear)"/>
<path d="M55.443 353.749C53.7377 353.749 52.2219 352.518 51.8429 350.907L42.9375 312.917H59.1378V350.054C59.1378 352.139 57.5273 353.749 55.443 353.749Z" fill="url(#paint5_linear)"/>
<path d="M152.93 353.749C154.635 353.749 156.151 352.518 156.53 350.907L165.436 312.917H149.141V350.054C149.235 352.139 150.846 353.749 152.93 353.749Z" fill="url(#paint6_linear)"/>
<path d="M81.0231 353.749C79.3178 353.749 77.802 352.518 77.423 350.907L68.5176 312.917H84.7179V350.054C84.7179 352.139 83.1073 353.749 81.0231 353.749Z" fill="url(#paint7_linear)"/>
<path d="M77.3278 343.233H159.277C166.098 343.233 171.593 337.739 171.593 330.917V269.432C171.593 262.611 166.098 257.116 159.277 257.116H77.3278C70.5066 257.116 65.0117 262.611 65.0117 269.432V330.917C65.0117 337.644 70.5066 343.233 77.3278 343.233Z" fill="url(#paint8_linear)"/>
<path d="M48.0536 343.233H130.003C136.824 343.233 142.319 337.739 142.319 330.917V269.432C142.319 262.611 136.824 257.116 130.003 257.116H48.0536C41.2324 257.116 35.7375 262.611 35.7375 269.432V330.917C35.6428 337.644 41.2324 343.233 48.0536 343.233Z" fill="url(#paint9_linear)"/>
<path d="M47.9589 282.506H129.908C133.508 282.506 136.445 279.569 136.445 275.969V269.337C136.445 265.737 133.508 262.8 129.908 262.8H47.9589C44.3588 262.8 41.4219 265.737 41.4219 269.337V275.969C41.4219 279.569 44.3588 282.506 47.9589 282.506Z" stroke="white" stroke-miterlimit="10"/>
<path d="M47.6746 337.454H130.287C133.697 337.454 136.54 334.707 136.54 331.201V294.538C136.54 291.127 133.792 288.285 130.287 288.285H47.6746C44.264 288.285 41.4219 291.032 41.4219 294.538V331.201C41.4219 334.707 44.264 337.454 47.6746 337.454Z" stroke="white" stroke-miterlimit="10"/>
<path d="M88.8853 301.832C91.1875 301.832 93.0538 299.966 93.0538 297.664C93.0538 295.362 91.1875 293.495 88.8853 293.495C86.5831 293.495 84.7168 295.362 84.7168 297.664C84.7168 299.966 86.5831 301.832 88.8853 301.832Z" fill="white"/>
<path d="M95.5186 159.156C95.5186 159.156 78.4656 160.766 72.2129 139.261C72.2129 139.261 89.8343 141.061 95.5186 159.156Z" fill="url(#paint10_linear)"/>
<path d="M92.2968 148.545C92.2968 148.545 82.8229 134.24 98.8338 118.608C98.8338 118.608 105.56 134.808 92.2968 148.545Z" fill="url(#paint11_linear)"/>
<path d="M98.4542 164.367C98.4542 164.367 94.7594 154.324 106.696 147.124C106.696 147.124 108.402 158.019 98.4542 164.367Z" fill="url(#paint12_linear)"/>
<path d="M99.4962 188.43C99.4962 188.43 79.601 187.199 76.2852 161.24C76.2852 161.24 96.1803 166.451 99.4962 188.43Z" fill="url(#paint13_linear)"/>
<path d="M93.0542 239.779C93.0542 239.779 89.4541 211.925 97.5069 192.125C108.118 165.882 87.654 156.219 93.3384 143.24" stroke="#3A2A26" stroke-miterlimit="10" stroke-linecap="round" stroke-linejoin="round"/>
<path d="M72.8756 219.22H116.74C119.582 219.22 121.666 221.873 121.098 224.62L116.361 245.463C114.845 252.189 108.782 257.021 101.866 257.021H87.7496C80.8337 257.021 74.7704 252.189 73.2546 245.463L68.5177 224.62C67.9492 221.873 70.0335 219.22 72.8756 219.22Z" fill="url(#paint14_linear)"/>
<path d="M116.74 219.22H72.8756C70.0335 219.22 67.9492 221.873 68.5177 224.62L69.5598 229.168H120.056L121.098 224.62C121.761 221.873 119.582 219.22 116.74 219.22Z" fill="url(#paint15_linear)"/>
<path d="M92.8652 212.967C92.8652 212.967 96.56 197.904 116.834 198.946C116.834 198.946 110.108 213.441 92.8652 212.967Z" fill="url(#paint16_linear)"/>
<path d="M100.539 187.199C100.539 187.199 112.95 177.819 128.013 191.462C128.013 191.462 113.613 198.472 100.539 187.199Z" fill="url(#paint17_linear)"/>
<path d="M115.887 177.63C115.887 177.63 128.297 168.251 143.361 181.893C143.361 181.893 129.055 188.904 115.887 177.63Z" fill="url(#paint18_linear)"/>
<path d="M125.74 172.04C125.74 172.04 116.74 159.44 130.762 144.756C130.762 144.756 137.393 159.251 125.74 172.04Z" fill="url(#paint19_linear)"/>
<path d="M105.939 181.988C105.939 181.988 97.4121 169.009 111.907 154.893C111.907 154.893 118.065 169.577 105.939 181.988Z" fill="url(#paint20_linear)"/>
<path d="M92.8663 206.81C92.8663 206.81 75.8133 208.42 69.5605 186.914C69.5605 186.914 87.0872 188.62 92.8663 206.81Z" fill="url(#paint21_linear)"/>
<path d="M97.5078 192.03C97.5078 192.03 102.434 180.567 114.845 177.346C127.256 174.125 127.161 167.967 127.161 167.967" stroke="#3A2A26" stroke-miterlimit="10" stroke-linecap="round" stroke-linejoin="round"/>
<path d="M292.291 355.739C290.017 355.739 288.123 354.223 287.649 352.044L276.186 303.348H297.123V350.907C297.123 353.655 294.944 355.739 292.291 355.739Z" fill="url(#paint22_linear)"/>
<path d="M445.295 355.739C447.568 355.739 449.463 354.223 449.937 352.044L461.4 303.348H440.463V350.907C440.558 353.655 442.642 355.739 445.295 355.739Z" fill="url(#paint23_linear)"/>
<path d="M480.536 278.148H249.752L262.447 214.768C265.573 198.946 279.5 187.578 295.7 187.578H434.587C450.693 187.578 464.619 198.946 467.841 214.768L480.536 278.148Z" fill="url(#paint24_linear)"/>
<path d="M515.305 255.316C514.926 240.726 503.273 228.599 488.778 227.652C473.904 226.705 461.304 237.126 458.84 251.053L447.188 302.59C446.145 307.043 442.261 310.169 437.714 310.169H393.281V345.128H447.377C461.588 345.128 473.999 335.465 477.409 321.633L486.694 284.495C486.788 284.495 486.788 284.495 486.883 284.495C502.799 284.59 515.684 271.421 515.305 255.316Z" fill="url(#paint25_linear)"/>
<path d="M460.451 227.652H486.883C502.61 227.652 515.305 240.347 515.305 256.074C515.305 271.8 502.61 284.495 486.883 284.495H460.451V227.652Z" fill="url(#paint26_linear)"/>
<path d="M261.594 355.739C259.32 355.739 257.425 354.223 256.952 352.044L245.488 303.348H266.426V350.907C266.426 353.655 264.247 355.739 261.594 355.739Z" fill="url(#paint27_linear)"/>
<path d="M414.693 355.739C416.967 355.739 418.862 354.223 419.335 352.044L430.799 303.348H409.861V350.907C409.861 353.655 412.04 355.739 414.693 355.739Z" fill="url(#paint28_linear)"/>
<path d="M286.228 290.464H238.669L215.553 227.747H246.438C259.89 227.747 271.733 236.747 275.238 249.726L286.228 290.464Z" fill="url(#paint29_linear)"/>
<path d="M433.072 313.106H257.521C253.353 313.106 250.037 309.696 250.037 305.622V285.632C250.037 281.464 253.448 278.148 257.521 278.148H433.072C437.241 278.148 440.557 281.558 440.557 285.632V305.622C440.651 309.791 437.241 313.106 433.072 313.106Z" fill="url(#paint30_linear)"/>
<path d="M488.874 255.316C488.495 240.726 476.842 228.599 462.347 227.652C447.473 226.705 434.873 237.126 432.409 251.053L420.756 302.59C419.714 307.043 415.83 310.169 411.283 310.169H346.576H335.776H265.006C260.458 310.169 256.574 307.043 255.532 302.59L243.879 251.147C241.416 237.221 228.816 226.705 213.942 227.747C199.447 228.694 187.794 240.821 187.415 255.41C186.941 271.516 199.92 284.685 215.931 284.685C216.026 284.685 216.026 284.685 216.121 284.685L225.405 321.822C228.816 335.654 241.227 345.318 255.437 345.318H335.776H346.387H420.851C435.062 345.318 447.473 335.654 450.883 321.822L460.168 284.685C460.263 284.685 460.263 284.685 460.357 284.685C476.463 284.59 489.347 271.421 488.874 255.316Z" fill="url(#paint31_linear)"/>
<path d="M216.025 266.495C221.99 266.495 226.825 261.659 226.825 255.695C226.825 249.73 221.99 244.894 216.025 244.894C210.06 244.894 205.225 249.73 205.225 255.695C205.225 261.659 210.06 266.495 216.025 266.495Z" fill="url(#paint32_linear)"/>
<path d="M460.451 266.495C466.415 266.495 471.251 261.659 471.251 255.695C471.251 249.73 466.415 244.894 460.451 244.894C454.486 244.894 449.65 249.73 449.65 255.695C449.65 261.659 454.486 266.495 460.451 266.495Z" fill="url(#paint33_linear)"/>
<path d="M256.763 238.073C256.763 238.073 247.289 239.968 244.068 239.589C240.847 239.21 235.447 237.884 234.026 240.347C232.605 242.81 230.52 249.063 231.183 250.389C231.847 251.716 236.394 252.189 238.005 252.853C239.615 253.516 243.215 251.242 243.215 251.242C243.215 251.242 247.289 253.8 250.036 250.958C252.689 248.021 260.837 247.642 260.837 247.642L256.763 238.073Z" fill="url(#paint34_linear)"/>
<path d="M248.52 239.115C248.52 239.115 253.256 245.558 251.646 252C251.646 252 289.068 241.958 293.899 240.631C298.826 239.21 303.847 237.221 307.068 233.052C310.289 228.884 324.405 199.799 325.826 193.736C328.005 184.546 311.616 174.504 306.5 187.199C300.91 201.125 292.857 220.452 292.857 220.452L248.52 239.115Z" fill="url(#paint35_linear)"/>
<path d="M237.531 246.6L239.9 246.694C241.7 246.789 243.121 248.305 243.026 250.105L236.963 392.497" stroke="#2E3B5E" stroke-width="4" stroke-miterlimit="10" stroke-linecap="round" stroke-linejoin="round"/>
<path d="M245.585 365.971L241.322 387.95C240.659 391.361 237.438 393.634 233.933 393.066L199.353 387.097C198.595 387.003 198.027 386.15 198.311 385.392C198.879 383.592 200.679 380.845 206.364 381.508C221.427 383.213 226.069 373.739 227.964 363.886L245.585 365.971Z" fill="url(#paint36_linear)"/>
<path d="M209.963 381.603C209.963 381.603 213.847 383.497 214.7 390.319L217.731 390.224C217.731 390.224 217.921 386.055 213.658 381.318L209.963 381.603Z" fill="url(#paint37_linear)"/>
<path d="M240.848 394.676C240.469 396.098 239.048 396.95 237.627 396.666L197.742 388.803C195.941 388.424 194.994 386.529 195.657 384.918C195.657 384.824 195.752 384.824 195.752 384.729L241.037 393.634C241.037 394.013 240.942 394.392 240.848 394.676Z" fill="url(#paint38_linear)"/>
<path d="M364.103 255.126C364.103 255.126 362.776 265.358 356.903 275.685C350.176 287.622 339.281 291.885 312.754 292.453C291.343 292.927 278.933 293.306 278.933 293.306C278.933 293.306 274.196 311.78 264.817 334.517C260.838 344.086 246.342 374.213 246.342 374.213L225.879 368.339C225.879 368.339 246.532 290.274 248.711 282.506C250.985 274.169 258.09 264.505 270.785 260.621C286.701 255.789 322.891 248.21 322.891 248.21L364.103 255.126Z" fill="url(#paint39_linear)"/>
<path d="M290.207 374.781L285.943 396.761C285.28 400.171 282.059 402.445 278.554 401.877L243.974 395.908C243.216 395.813 242.648 394.961 242.932 394.203C243.5 392.403 245.3 389.655 250.985 390.318C266.048 392.024 270.69 382.55 272.585 372.697L290.207 374.781Z" fill="url(#paint40_linear)"/>
<path d="M254.584 390.508C254.584 390.508 258.468 392.403 259.321 399.224L262.353 399.129C262.353 399.129 262.542 394.961 258.279 390.224L254.584 390.508Z" fill="url(#paint41_linear)"/>
<path d="M285.469 403.487C285.09 404.908 283.669 405.761 282.248 405.477L242.363 397.613C240.563 397.234 239.615 395.34 240.278 393.729C240.278 393.634 240.373 393.634 240.373 393.54L285.658 402.445C285.658 402.919 285.563 403.203 285.469 403.487Z" fill="url(#paint42_linear)"/>
<path d="M375.659 246.979C375.659 246.979 376.038 255.6 374.901 268.2C373.575 282.885 365.333 289.706 342.406 290.937C322.037 291.98 316.447 292.453 316.447 292.453C316.447 292.453 312.847 314.717 305.647 338.307C302.616 348.16 290.963 379.613 290.963 379.613L270.025 375.729C270.025 375.729 283.194 296.148 284.615 288.095C286.131 279.569 291.626 267.537 304.51 264.221C319.953 260.242 338.522 248.779 338.522 248.779L375.659 246.979Z" fill="url(#paint43_linear)"/>
<path d="M334.545 166.356C334.545 166.356 328.766 171.188 316.734 176.872C307.26 181.325 302.428 190.893 310.007 203.304C322.039 223.104 317.208 248.305 317.208 248.305L375.661 256.831C375.661 256.831 378.219 240.442 378.125 208.515C378.125 197.62 377.367 187.672 374.24 183.504C369.124 176.872 360.314 174.788 350.745 165.693L334.545 166.356Z" fill="url(#paint44_linear)"/>
<path d="M353.493 169.009C353.493 169.009 348.377 168.156 350.84 151.293L332.366 158.777C332.366 158.777 338.334 167.019 327.629 172.704L335.019 181.23L353.493 169.009Z" fill="url(#paint45_linear)"/>
<path d="M335.017 181.23L329.711 172.325L333.027 167.398L327.343 171.093L326.68 185.209L331.417 179.904L335.017 181.23Z" fill="url(#paint46_linear)"/>
<path d="M322.037 145.703C322.037 145.608 320.995 142.103 318.532 143.808C316.069 145.419 315.785 154.419 321.09 153.661L322.037 145.703Z" fill="url(#paint47_linear)"/>
<path d="M320.239 145.324C320.239 145.324 321.281 132.25 327.344 128.65C327.344 128.65 318.628 132.629 318.533 143.713C318.533 143.713 319.291 142.861 320.239 145.324Z" fill="url(#paint48_linear)"/>
<path d="M320.523 141.061C320.523 141.061 320.334 146.84 319.386 152.714C318.439 158.587 322.986 164.082 324.881 166.735C326.776 169.388 329.523 170.714 332.555 170.24C335.586 169.767 340.797 167.114 343.45 162.472C346.197 157.829 347.334 155.84 347.334 155.84C347.334 155.84 352.26 156.693 352.45 150.44C352.734 144.187 347.145 142.766 344.871 146.745C344.871 146.745 353.303 137.271 349.134 131.587C343.544 123.818 321.944 122.587 320.523 141.061Z" fill="url(#paint49_linear)"/>
<path d="M325.354 149.871C325.354 149.871 324.028 153.187 323.649 154.229C322.986 155.935 325.828 155.935 325.828 155.935" stroke="#3A2A26" stroke-miterlimit="10" stroke-linecap="round" stroke-linejoin="round"/>
<path d="M320.523 141.061C320.523 141.061 321.755 140.113 324.692 141.345" stroke="#3A2A26" stroke-miterlimit="10" stroke-linecap="round" stroke-linejoin="round"/>
<path d="M331.605 141.629C331.605 141.629 333.5 141.25 335.49 141.819" stroke="#3A2A26" stroke-miterlimit="10" stroke-linecap="round" stroke-linejoin="round"/>
<path d="M332.649 149.398C333.381 149.398 333.975 148.804 333.975 148.071C333.975 147.339 333.381 146.745 332.649 146.745C331.916 146.745 331.322 147.339 331.322 148.071C331.322 148.804 331.916 149.398 332.649 149.398Z" fill="#3A2A26"/>
<path d="M322.608 149.114C323.34 149.114 323.934 148.52 323.934 147.787C323.934 147.055 323.34 146.461 322.608 146.461C321.875 146.461 321.281 147.055 321.281 147.787C321.281 148.52 321.875 149.114 322.608 149.114Z" fill="#3A2A26"/>
<path d="M345.914 152.524C345.914 152.524 346.388 147.693 349.988 148.071" stroke="#3A2A26" stroke-miterlimit="10" stroke-linecap="round" stroke-linejoin="round"/>
<path d="M346.766 149.682C346.766 149.682 348.281 149.208 349.229 150.345" stroke="#3A2A26" stroke-miterlimit="10" stroke-linecap="round" stroke-linejoin="round"/>
<path d="M319.006 153.756C319.006 153.756 322.701 151.766 325.637 151.672C328.669 151.577 338.996 152.05 338.996 152.05C338.996 152.05 340.322 158.966 344.869 160.103C344.869 160.103 340.133 170.714 331.132 170.335C322.132 169.956 318.437 159.061 319.006 153.756Z" fill="url(#paint50_linear)"/>
<path d="M338.996 151.956L344.301 147.503" stroke="#3A2A26" stroke-miterlimit="10" stroke-linecap="round" stroke-linejoin="round"/>
<path d="M344.869 160.103L347.332 155.745" stroke="#3A2A26" stroke-miterlimit="10" stroke-linecap="round" stroke-linejoin="round"/>
<path d="M344.966 146.65C344.966 146.65 342.123 140.303 344.871 137.461C348.566 133.671 346.481 129.029 345.913 128.65C345.913 128.65 351.692 131.492 354.345 137.177C357.945 145.135 356.808 154.229 353.587 157.924C350.366 161.619 350.46 163.135 350.46 163.135C350.46 163.135 349.892 156.882 350.46 155.272C350.46 155.272 354.439 151.293 351.787 146.65C349.039 141.913 344.966 146.65 344.966 146.65Z" fill="url(#paint51_linear)"/>
<path d="M335.588 136.703H335.493C329.145 135.471 324.503 136.703 324.503 136.798C324.219 136.892 323.84 136.703 323.745 136.419C323.651 136.134 323.84 135.755 324.124 135.661C324.314 135.566 329.051 134.24 335.682 135.566C335.967 135.661 336.251 135.945 336.156 136.229C336.061 136.513 335.872 136.703 335.588 136.703Z" fill="url(#paint52_linear)"/>
<path d="M336.06 133.671H335.966C329.618 132.44 324.976 133.671 324.976 133.766C324.692 133.861 324.313 133.671 324.218 133.387C324.123 133.103 324.313 132.724 324.597 132.629C324.786 132.534 329.523 131.208 336.155 132.534C336.439 132.629 336.724 132.913 336.629 133.197C336.534 133.482 336.25 133.671 336.06 133.671Z" fill="url(#paint53_linear)"/>
<path d="M320.05 251.905C320.05 251.905 312.66 256.547 308.018 258.253C306.597 258.726 303.186 259.105 301.86 260.053C300.534 261 293.428 268.105 291.818 269.432C290.302 270.758 292.102 272.274 293.713 271.042C295.323 269.716 301.007 264.979 301.007 264.979C301.007 264.979 292.86 272.179 292.007 273.032C291.155 273.979 293.144 275.779 295.134 274.358C297.123 272.937 304.892 266.874 304.892 266.874C304.892 266.874 297.028 273.79 296.46 274.548C295.892 275.306 298.165 277.2 300.344 275.4C302.523 273.6 308.587 268.295 308.587 268.295C308.587 268.295 302.713 274.169 301.955 275.021C301.292 275.969 303.565 276.727 304.797 275.495C306.029 274.263 311.523 270 312.566 269.337C313.513 268.674 316.734 268.39 319.671 264.79C322.324 261.663 328.103 259.2 328.103 259.2L320.05 251.905Z" fill="url(#paint54_linear)"/>
<path d="M313.986 255.316C313.986 255.316 319.481 256.926 320.144 264.695C320.144 264.695 353.777 246.694 358.229 244.137C362.587 241.579 366.945 238.263 369.03 233.431C371.114 228.599 375.851 195.536 376.04 189.378C376.419 178.009 358.419 175.64 356.714 189.283C354.913 204.157 352.071 224.905 352.071 224.905L313.986 255.316Z" fill="url(#paint55_linear)"/>
<path d="M335.018 181.23L350.744 167.398L350.649 164.556L356.239 169.861L347.144 188.335L340.323 180.946L335.018 181.23Z" fill="url(#paint56_linear)"/>
<path d="M172.543 222.915C172.827 225.662 176.332 234.947 176.996 238.073C177.659 241.2 180.406 240.442 180.785 238.831C181.164 237.221 178.796 231.252 178.796 231.252C178.796 231.252 181.543 236.178 182.585 239.494C183.627 242.81 187.133 241.01 186.47 238.736C185.901 236.842 182.396 229.168 182.396 229.168C182.396 229.168 186.185 236.557 187.512 239.873C188.838 243.189 191.775 241.673 191.112 239.589C190.449 237.315 186.47 227.747 186.47 227.747C186.47 227.747 189.975 235.515 191.964 239.968C193.196 242.81 196.322 241.294 195.564 239.589C194.807 237.884 190.164 226.42 190.638 225.473C191.112 224.526 192.154 224.905 194.712 225.473C197.175 226.041 198.786 225.283 198.028 224.147C197.364 223.01 194.996 221.873 189.406 218.368C186.564 216.662 183.912 210.315 182.964 207.283C178.796 194.588 168.943 155.84 168.943 155.84L166.764 144.85L150.09 150.535C150.09 150.535 151.89 162.093 153.027 165.882C156.343 177.251 166.48 199.325 170.08 209.841C171.406 213.631 172.164 220.168 172.543 222.915Z" fill="url(#paint57_linear)"/>
<path d="M188.932 224.62C188.932 224.62 183.627 228.599 178.037 223.768" stroke="#3A2A26" stroke-width="0.5" stroke-miterlimit="10" stroke-linecap="round" stroke-linejoin="round"/>
<path d="M196.89 274.358H174.437C173.774 274.358 173.205 273.79 173.205 273.127V237.979C173.205 235.421 175.289 233.242 177.942 233.242H193.29C195.848 233.242 198.027 235.326 198.027 237.979V273.127C198.121 273.885 197.553 274.358 196.89 274.358ZM175.668 271.99H195.753V238.073C195.753 236.747 194.711 235.705 193.384 235.705H178.037C176.71 235.705 175.668 236.747 175.668 238.073V271.99Z" fill="#2E3B5E"/>
<path d="M208.732 260.337H203.048C203.048 260.337 196.227 258.821 195.279 252.189H200.585C200.679 252.095 198.216 255.031 208.732 260.337Z" fill="url(#paint58_linear)"/>
<path d="M179.553 260.337H173.868C173.868 260.337 167.047 258.821 166.1 252.189H171.405C171.5 252.095 169.037 255.031 179.553 260.337Z" fill="url(#paint59_linear)"/>
<path d="M165.626 311.022H212.995C217.827 311.022 221.806 307.043 221.806 302.211V269.148C221.806 264.316 217.827 260.337 212.995 260.337H165.626C160.794 260.337 160.983 264.316 160.983 269.148V302.211C160.983 307.043 160.794 311.022 165.626 311.022Z" fill="url(#paint60_linear)"/>
<path d="M158.426 311.022H201.627C206.458 311.022 210.438 307.043 210.438 302.211V269.148C210.438 264.316 206.458 260.337 201.627 260.337H158.426C153.594 260.337 149.615 264.316 149.615 269.148V302.211C149.615 307.043 153.5 311.022 158.426 311.022Z" fill="url(#paint61_linear)"/>
<path d="M221.806 269.716H149.615C149.331 269.716 149.047 269.432 149.047 269.148C149.047 268.863 149.331 268.579 149.615 268.579H221.806C222.09 268.579 222.375 268.863 222.375 269.148C222.375 269.432 222.185 269.716 221.806 269.716Z" fill="#2E3B5E"/>
<path d="M155.679 311.022H198.217C201.344 311.022 203.807 308.559 203.807 305.432V282.411C203.807 279.284 201.344 276.821 198.217 276.821H155.679C152.553 276.821 150.09 279.284 150.09 282.411V305.432C150.09 308.559 152.553 311.022 155.679 311.022Z" fill="url(#paint62_linear)"/>
<path d="M152.363 311.022H194.901C198.027 311.022 200.49 308.559 200.49 305.432V282.411C200.49 279.284 198.027 276.821 194.901 276.821H152.363C149.237 276.821 146.773 279.284 146.773 282.411V305.432C146.773 308.559 149.331 311.022 152.363 311.022Z" fill="url(#paint63_linear)"/>
<path d="M193.004 286.39H152.74C152.456 286.39 152.172 286.106 152.172 285.821C152.172 285.537 152.456 285.253 152.74 285.253H193.004C193.289 285.253 193.573 285.537 193.573 285.821C193.573 286.106 193.383 286.39 193.004 286.39Z" fill="#2E3B5E"/>
<path d="M195.28 252.095H200.585C190.258 258.632 191.206 276.821 191.206 276.821H185.9C185.995 276.821 184.953 258.632 195.28 252.095Z" fill="white"/>
<path d="M166.101 252.095H171.406C161.08 258.632 162.027 276.821 162.027 276.821H156.722C156.722 276.821 155.775 258.632 166.101 252.095Z" fill="white"/>
<path d="M163.069 253.989H202.102C202.576 253.989 202.954 253.61 202.954 253.137V250.01C202.954 249.537 202.576 249.158 202.102 249.158H163.069C162.596 249.158 162.217 249.537 162.217 250.01V253.137C162.217 253.61 162.596 253.989 163.069 253.989Z" fill="url(#paint64_linear)"/>
<path d="M177.089 232.768H194.332C196.7 232.768 198.595 234.663 198.595 237.031V240.063C198.595 240.442 198.311 240.726 197.932 240.726H195.942C195.563 240.726 195.279 240.442 195.279 240.063V237.505C195.279 236.842 194.711 236.273 194.048 236.273H177.374C176.71 236.273 176.142 236.842 176.142 237.505V240.063C176.142 240.442 175.858 240.726 175.479 240.726H173.489C173.11 240.726 172.826 240.442 172.826 240.063V237.031C172.826 234.663 174.721 232.768 177.089 232.768Z" fill="url(#paint65_linear)"/>
<path d="M184.48 300.411H184.195V302.401H184.385V301.643C184.385 301.359 184.574 301.264 184.764 301.264C185.048 301.264 185.143 301.453 185.143 301.643V302.401H185.332V301.548C185.332 301.264 185.143 300.98 184.764 300.98C184.574 300.98 184.385 301.074 184.29 301.169V300.411H184.48ZM186.469 300.98C186.09 300.98 185.806 301.264 185.806 301.643C185.806 302.022 186.09 302.306 186.469 302.306C186.659 302.306 186.848 302.306 187.037 302.117L186.943 302.022C186.848 302.117 186.659 302.211 186.564 302.211C186.28 302.211 186.09 302.022 186.09 301.738H187.132V301.643C187.132 301.264 186.848 300.98 186.469 300.98ZM186.469 301.169C186.659 301.169 186.848 301.359 186.848 301.548H185.995C186.09 301.359 186.28 301.169 186.469 301.169ZM188.743 301.074H188.553V301.264C188.459 301.169 188.269 301.074 188.08 301.074C187.701 301.074 187.416 301.359 187.416 301.738C187.416 302.117 187.701 302.401 188.08 302.401C188.269 302.401 188.459 302.306 188.553 302.211V302.401H188.743V301.074ZM188.08 301.169C188.364 301.169 188.553 301.359 188.553 301.643C188.553 301.927 188.364 302.117 188.08 302.117C187.795 302.117 187.606 301.927 187.606 301.643C187.606 301.453 187.795 301.169 188.08 301.169ZM189.501 300.411H189.311V302.401H189.501V300.411ZM190.922 301.074H190.353V300.695H190.164V301.074H189.88V301.264H190.164V301.927C190.164 302.306 190.353 302.401 190.638 302.401C190.827 302.401 190.922 302.306 191.016 302.306L190.922 302.117C190.827 302.211 190.732 302.211 190.638 302.211C190.448 302.211 190.353 302.117 190.353 301.927V301.264H190.922V301.074ZM191.49 300.411H191.301V302.401H191.49V301.643C191.49 301.359 191.68 301.264 191.869 301.264C192.153 301.264 192.248 301.453 192.248 301.643V302.401H192.438V301.548C192.438 301.264 192.248 300.98 191.869 300.98C191.68 300.98 191.49 301.074 191.395 301.169V300.411H191.49Z" fill="url(#paint66_linear)"/>
<path d="M167.236 295.485C166.667 295.201 166.194 295.106 165.531 295.106C164.394 295.106 163.73 295.58 163.73 296.432C163.73 297.095 164.204 297.569 165.152 297.664H165.531C166.004 297.759 166.194 297.853 166.194 298.043C166.194 298.232 165.909 298.422 165.436 298.422C164.773 298.422 164.394 298.232 164.015 298.043L163.541 298.896C164.109 299.274 164.867 299.369 165.436 299.369C166.667 299.369 167.331 298.801 167.331 297.948C167.331 297.285 166.857 296.906 165.909 296.716L165.531 296.622C165.152 296.527 164.867 296.527 164.867 296.243C164.867 296.053 165.057 295.864 165.531 295.864C166.004 295.864 166.573 296.053 166.857 296.243L167.236 295.485ZM170.267 295.106C169.699 295.106 169.32 295.295 169.036 295.674V295.201H167.899V300.98H169.036V298.896C169.32 299.18 169.699 299.464 170.267 299.464C171.404 299.464 172.257 298.517 172.257 297.285C172.257 296.053 171.404 295.106 170.267 295.106ZM170.078 296.148C170.741 296.148 171.12 296.622 171.12 297.285C171.12 297.948 170.741 298.422 170.078 298.422C169.415 298.422 169.036 297.948 169.036 297.285C169.036 296.622 169.415 296.148 170.078 296.148ZM175.194 295.106C174.72 295.106 174.247 295.295 174.057 295.674V295.201H173.015V299.274H174.152V297.095C174.152 296.527 174.531 296.148 175.004 296.148C175.194 296.148 175.478 296.243 175.668 296.243L175.857 295.201C175.668 295.106 175.478 295.106 175.194 295.106ZM177.468 295.201H176.331V299.274H177.468V295.201ZM176.899 293.211C176.52 293.211 176.141 293.495 176.141 293.874C176.141 294.253 176.425 294.538 176.899 294.538C177.373 294.538 177.657 294.253 177.657 293.874C177.657 293.495 177.278 293.211 176.899 293.211ZM180.689 295.106C180.215 295.106 179.741 295.295 179.457 295.674V295.201H178.32V299.274H179.457V297.001C179.457 296.432 179.836 296.053 180.31 296.053C180.783 296.053 181.162 296.338 181.162 297.001V299.274H182.299V296.716C182.299 295.769 181.636 295.106 180.689 295.106ZM186.184 295.201H184.668V293.969H183.531V295.201H182.773V296.148H183.531V297.759C183.531 298.801 184.099 299.369 185.047 299.369C185.615 299.369 186.089 299.18 186.468 298.896L186.089 298.043C185.899 298.138 185.615 298.327 185.331 298.327C184.952 298.327 184.668 298.138 184.668 297.664V296.148H186.184V295.201ZM188.742 295.106C187.51 295.106 186.657 295.959 186.657 297.285C186.657 298.517 187.51 299.369 188.836 299.369C189.499 299.369 190.163 299.18 190.636 298.706L189.973 298.043C189.689 298.327 189.31 298.422 188.931 298.422C188.363 298.422 187.984 298.138 187.889 297.569H190.826C190.826 297.474 190.826 297.285 190.826 297.19C190.731 295.959 189.878 295.106 188.742 295.106ZM188.647 296.053C189.12 296.053 189.405 296.338 189.594 296.906H187.794C187.889 296.338 188.173 296.053 188.647 296.053ZM193.668 295.106C193.194 295.106 192.721 295.295 192.531 295.674V295.201H191.489V299.274H192.626V297.095C192.626 296.527 193.005 296.148 193.478 296.148C193.668 296.148 193.952 296.243 194.142 296.243L194.331 295.201C194.047 295.106 193.857 295.106 193.668 295.106Z" fill="url(#paint67_linear)"/>
<path fill-rule="evenodd" clip-rule="evenodd" d="M158.995 293.211C160.605 293.211 161.931 294.348 162.121 295.864H160.321C160.131 295.864 160.037 295.959 159.942 296.053L159.658 296.811L159.374 296.243L158.616 294.538C158.521 294.443 158.426 294.348 158.237 294.348C158.047 294.348 157.952 294.443 157.858 294.538L157.289 295.864H155.773C156.152 294.348 157.384 293.211 158.995 293.211ZM162.121 296.622C162.026 297.001 161.931 297.38 161.742 297.759L158.995 302.401L156.247 297.759C156.058 297.38 155.868 297.001 155.868 296.622H157.668C157.858 296.622 157.952 296.527 158.047 296.432L158.331 295.674L158.616 296.243L159.374 297.948C159.468 298.043 159.563 298.138 159.752 298.138C159.942 298.138 160.037 298.043 160.131 297.948L160.7 296.622H162.121V296.622Z" fill="url(#paint68_linear)"/>
<path d="M194.9 235.705C194.995 236.842 195.658 239.684 195.563 240.347C195.374 241.673 192.626 242.242 192.437 240.063C192.153 238.073 192.058 235.894 192.153 235.042C192.342 233.905 194.711 233.905 194.9 235.705Z" fill="url(#paint69_linear)"/>
<path d="M190.447 234.947C190.637 236.273 191.3 239.494 191.205 240.252C191.015 241.768 187.889 242.336 187.605 239.968C187.321 237.694 187.226 235.231 187.321 234.284C187.415 232.863 190.163 232.863 190.447 234.947Z" fill="url(#paint70_linear)"/>
<path d="M185.711 234.189C185.9 235.515 186.563 238.736 186.469 239.494C186.279 241.01 183.153 241.579 182.869 239.21C182.584 236.936 182.49 234.473 182.584 233.526C182.774 232.105 185.521 232.105 185.711 234.189Z" fill="url(#paint71_linear)"/>
<path d="M180.12 234.189C180.215 235.326 180.784 238.073 180.784 238.736C180.594 240.063 177.941 240.537 177.657 238.452C177.373 236.463 177.373 234.378 177.373 233.621C177.563 232.294 179.931 232.389 180.12 234.189Z" fill="url(#paint72_linear)"/>
<path d="M171.12 163.135C171.12 163.135 166.005 136.324 164.015 128.839C161.362 119.081 140.615 117.755 145.067 137.84C149.52 157.924 149.615 158.682 151.794 167.682C161.078 162.756 171.12 163.135 171.12 163.135Z" fill="url(#paint73_linear)"/>
<path d="M151.891 371.56C151.891 371.56 151.228 383.781 151.133 384.729C151.038 385.676 149.428 391.361 152.554 392.119C155.681 392.876 189.313 392.119 189.313 392.119C189.313 392.119 188.934 386.624 179.934 385.487C170.934 384.35 168.66 381.508 168.47 379.234C168.281 376.96 168.755 369.571 168.755 369.571L151.891 371.56Z" fill="url(#paint74_linear)"/>
<path d="M193.007 390.887C190.544 388.518 186.091 385.771 178.512 384.729C178.512 384.729 179.175 388.518 169.891 388.518C160.606 388.518 151.511 387.192 150.564 385.392C150.564 385.392 148.385 388.708 148.48 392.403C148.48 393.54 149.427 394.487 150.564 394.487H191.586C193.48 394.487 194.428 392.213 193.007 390.887Z" fill="url(#paint75_linear)"/>
<path d="M88.8867 367.297C88.8867 367.297 86.234 378.192 85.9498 379.044C85.6656 379.897 83.2971 384.729 86.0446 385.866C88.6972 387.097 118.919 392.118 118.919 392.118C118.919 392.118 119.487 387.097 111.624 384.539C103.761 381.981 102.245 379.044 102.434 376.96C102.624 374.876 104.329 368.339 104.329 368.339L88.8867 367.297Z" fill="url(#paint76_linear)"/>
<path d="M122.424 391.645C120.624 389.182 117.119 385.866 110.487 383.687C110.487 383.687 110.392 387.192 102.15 385.676C93.9078 384.16 85.9497 381.318 85.3813 379.518C85.3813 379.518 82.8234 382.076 82.2549 385.487C82.0654 386.529 82.7286 387.476 83.7707 387.666L120.529 394.676C122.235 394.866 123.466 392.971 122.424 391.645Z" fill="url(#paint77_linear)"/>
<path d="M167.994 209.367C167.994 209.367 176.425 260.526 177.468 271.8C178.51 283.074 178.32 285.253 177.657 295.959C177.089 306.664 169.51 376.202 169.51 376.202H150.183C150.183 376.202 146.867 322.58 146.678 309.791C146.393 297.001 148.762 283.169 148.478 280.706C148.193 278.243 125.551 218.368 125.551 218.368L167.994 209.367Z" fill="url(#paint78_linear)"/>
<path d="M140.142 227.273L145.353 271.327L130.289 230.873L140.142 227.273Z" fill="url(#paint79_linear)"/>
<path d="M140.141 214.104C140.141 214.104 138.909 268.674 137.014 279.853C135.214 291.032 134.456 293.022 131.235 303.254C128.014 313.485 103.477 375.823 103.477 375.823L86.6133 372.223C86.6133 372.223 94.8556 321.443 97.7925 308.938C100.729 296.432 106.508 283.643 106.793 281.179C107.077 278.716 95.045 240.158 97.7925 207.283C98.5504 197.336 140.141 214.104 140.141 214.104Z" fill="url(#paint80_linear)"/>
<path d="M116.646 113.492C116.646 113.492 109.067 115.766 103.288 117.755C97.5084 119.745 93.4347 125.429 95.8031 136.703C103.761 175.072 97.5084 201.883 95.8031 219.22C128.204 225.568 162.12 218.462 169.51 213.441C166.668 201.22 156.436 171.661 162.878 140.492C164.773 131.397 163.731 124.671 157.668 122.208C151.604 119.745 145.73 115.387 145.73 115.387L116.646 113.492Z" fill="url(#paint81_linear)"/>
<path d="M149.426 117.85L139.478 140.113L113.141 114.629" stroke="#2E3B5E" stroke-miterlimit="10" stroke-linecap="round" stroke-linejoin="round"/>
<path d="M124.415 96.0599C124.415 96.0599 123.089 110.081 116.646 113.492L138.057 134.24L146.584 116.05C146.584 116.05 142.131 113.492 143.931 104.965L124.415 96.0599Z" fill="url(#paint82_linear)"/>
<path d="M152.835 90.3756C152.835 90.3756 152.077 78.5332 143.74 76.449C135.403 74.3647 120.624 78.4385 123.561 95.1125C123.561 95.1125 122.519 93.4072 121.003 94.4493C119.487 95.4915 121.098 101.934 122.14 102.976C124.319 104.965 126.024 103.923 126.024 103.923C126.024 103.923 126.687 107.05 131.803 111.787C137.961 117.376 144.782 116.239 148.951 110.839C154.162 104.018 152.835 90.3756 152.835 90.3756Z" fill="url(#paint83_linear)"/>
<path d="M152.835 89.9019C152.835 89.9019 151.603 85.2597 148.098 80.8069C148.098 80.8069 147.056 85.8281 140.235 89.1439C135.687 91.4177 130.761 90.2808 130.761 90.2808C130.761 90.2808 131.14 93.0282 128.866 94.7335C127.161 95.9651 123.655 95.0177 123.655 95.0177C123.655 95.0177 123.087 93.8809 121.666 94.0704C120.245 94.2598 120.245 101.46 123.087 103.544C123.087 103.544 122.613 111.502 115.697 114.155C108.781 116.808 103.286 117.85 100.729 119.555C100.729 119.555 103.665 111.502 107.644 107.618C111.623 103.734 116.171 101.649 119.96 102.786C119.96 102.786 109.16 72.9436 136.256 70.0067C151.887 68.3014 153.782 80.6175 153.782 80.6175C153.782 80.6175 157.856 83.6491 155.961 89.3334C154.635 93.4072 156.814 94.2598 156.814 94.2598C156.814 94.2598 154.351 96.0599 152.835 89.9019Z" fill="url(#paint84_linear)"/>
<path d="M140.139 89.8071C140.139 89.8071 137.013 87.9123 134.455 90.6598" stroke="#3A2A26" stroke-miterlimit="10" stroke-linecap="round" stroke-linejoin="round"/>
<path d="M146.393 88.7649C146.393 88.7649 148.856 86.9649 152.172 89.1439" stroke="#3A2A26" stroke-miterlimit="10" stroke-linecap="round" stroke-linejoin="round"/>
<path d="M145.35 96.4388L146.676 100.797C146.96 101.649 146.487 102.597 145.539 102.881L144.781 103.165" stroke="#3A2A26" stroke-miterlimit="10" stroke-linecap="round" stroke-linejoin="round"/>
<path d="M141.75 107.618C141.75 107.618 142.697 108.66 144.497 108.376C146.297 108.092 146.866 106.671 146.866 106.671" stroke="#3A2A26" stroke-miterlimit="10" stroke-linecap="round" stroke-linejoin="round"/>
<path d="M139.359 98.0406C140.032 97.9425 140.498 97.3174 140.4 96.6443C140.302 95.9712 139.677 95.5051 139.004 95.6032C138.331 95.7013 137.865 96.3264 137.963 96.9995C138.061 97.6726 138.686 98.1387 139.359 98.0406Z" fill="#3A2A26"/>
<path d="M149.693 97.2771C150.366 97.1791 150.832 96.5539 150.734 95.8809C150.636 95.2078 150.011 94.7417 149.338 94.8398C148.665 94.9379 148.199 95.563 148.297 96.2361C148.395 96.9091 149.02 97.3752 149.693 97.2771Z" fill="#3A2A26"/>
<path d="M152.268 102.407C151.889 101.934 150.184 102.028 147.626 100.607C146.11 99.6599 144.973 98.902 141.752 100.323C137.489 102.218 132.752 101.839 132.752 101.839C132.752 101.839 130.857 106.765 126.594 106.765C126.594 106.765 132.373 116.808 141.373 115.86C150.563 114.913 152.647 102.881 152.268 102.407Z" fill="url(#paint85_linear)"/>
<path d="M133.507 102.692L123.086 94.5441" stroke="#3A2A26" stroke-miterlimit="10" stroke-linecap="round" stroke-linejoin="round"/>
<path d="M127.918 107.808L126.023 103.923" stroke="#3A2A26" stroke-miterlimit="10" stroke-linecap="round" stroke-linejoin="round"/>
<path d="M137.108 255.884L90.9704 243.094C88.8861 242.526 87.7493 240.442 88.3177 238.357L96.7494 207.946C97.3179 205.862 99.4021 204.725 101.486 205.294L147.624 218.083C149.708 218.652 150.845 220.736 150.277 222.82L141.845 253.231C141.277 255.316 139.192 256.453 137.108 255.884Z" fill="url(#paint86_linear)"/>
<path d="M134.833 252.474L95.5169 241.579C94.6642 241.389 93.8116 241.863 93.6221 242.716L93.3379 243.758L135.686 255.505L135.97 254.463C136.16 253.61 135.686 252.758 134.833 252.474Z" fill="url(#paint87_linear)"/>
<path fill-rule="evenodd" clip-rule="evenodd" d="M121.003 223.484C123.467 224.147 124.982 226.515 124.604 228.978L121.951 228.22C121.667 228.126 121.477 228.22 121.288 228.41L120.53 229.357L120.34 228.41L119.867 225.473C119.867 225.189 119.677 224.999 119.393 224.999C119.109 224.905 118.919 224.999 118.73 225.189L117.309 226.894L115.035 226.231C116.077 223.957 118.54 222.726 121.003 223.484ZM124.319 230.021C124.035 230.589 123.656 231.157 123.277 231.631L117.119 237.505L114.94 229.263C114.751 228.599 114.751 228.031 114.845 227.368L117.498 228.126C117.782 228.22 117.972 228.126 118.161 227.936L118.919 226.989L119.109 227.936L119.582 230.873C119.582 231.157 119.772 231.347 120.056 231.347C120.34 231.442 120.53 231.347 120.719 231.157L122.14 229.452L124.319 230.021Z" fill="url(#paint88_linear)"/>
<path d="M98.4557 219.883C99.3083 223.01 100.635 237.221 100.729 239.494C100.824 241.768 102.245 245.084 104.993 246.979C106.319 250.768 109.351 249.916 109.351 249.916C109.351 249.916 109.919 251.81 111.624 252C112.761 252.189 113.898 252 114.372 250.958C113.235 250.01 113.045 249.537 113.045 249.537L111.435 240.821L113.519 249.442C113.519 249.442 115.224 251.147 117.119 253.516C118.919 255.789 120.056 253.61 119.772 252.758C119.109 250.863 116.835 247.452 116.835 247.452C116.835 247.452 115.509 240.631 115.414 239.779C115.509 238.642 115.698 234.473 115.698 234.473C115.698 234.473 116.456 236.463 117.688 239.21C118.919 241.958 119.582 243.189 120.814 243C121.951 242.81 121.193 239.873 120.435 235.231C119.677 230.589 117.782 229.357 115.224 225.189C112.666 221.02 110.014 216.852 110.014 216.852L102.245 171.661L105.845 157.166L88.3186 148.45C88.3186 148.45 83.4869 161.809 83.0132 166.546C82.5396 171.377 82.8238 178.009 85.287 183.977C86.9923 188.43 97.6978 216.757 98.4557 219.883Z" fill="url(#paint89_linear)"/>
<path d="M109.447 250.01L106.889 240.821" stroke="#682E54" stroke-width="0.5" stroke-miterlimit="10" stroke-linecap="round" stroke-linejoin="round"/>
<path d="M104.994 247.073L103.1 241.389" stroke="#682E54" stroke-width="0.5" stroke-miterlimit="10" stroke-linecap="round" stroke-linejoin="round"/>
<path d="M112.571 247.737L111.34 240.252" stroke="#682E54" stroke-width="0.5" stroke-miterlimit="10" stroke-linecap="round" stroke-linejoin="round"/>
<path d="M104.898 163.514C104.898 163.514 113.141 137.082 113.614 126.945C114.088 116.808 98.9298 112.544 92.7717 129.218C85.5716 148.545 84.2453 153.566 83.2031 157.545C97.4139 158.777 104.898 163.514 104.898 163.514Z" fill="url(#paint90_linear)"/>
<path d="M157.478 158.493H157.383V159.63H157.478V159.156C157.478 158.966 157.572 158.966 157.667 158.966C157.857 158.966 157.857 159.061 157.857 159.156V159.63H157.951V159.156C157.951 158.966 157.857 158.872 157.667 158.872C157.572 158.872 157.478 158.872 157.383 158.966V158.493H157.478ZM158.709 158.872C158.52 158.872 158.33 159.061 158.33 159.251C158.33 159.44 158.52 159.63 158.709 159.63C158.804 159.63 158.899 159.63 158.993 159.535L158.899 159.44C158.804 159.535 158.709 159.535 158.614 159.535C158.52 159.535 158.33 159.44 158.33 159.251H158.993C158.993 159.061 158.899 158.872 158.709 158.872ZM158.709 158.966C158.804 158.966 158.899 159.061 158.993 159.251H158.52C158.425 159.061 158.52 158.966 158.709 158.966ZM160.036 158.872H159.941V158.966C159.846 158.872 159.751 158.872 159.657 158.872C159.467 158.872 159.278 159.061 159.278 159.251C159.278 159.44 159.467 159.63 159.657 159.63C159.751 159.63 159.846 159.535 159.941 159.535V159.63H160.036V158.872ZM159.657 158.966C159.846 158.966 159.941 159.061 159.941 159.251C159.941 159.44 159.846 159.535 159.657 159.535C159.467 159.535 159.372 159.44 159.372 159.251C159.372 159.061 159.467 158.966 159.657 158.966ZM160.414 158.493H160.32V159.63H160.414V158.493ZM161.267 158.872H160.888V158.587H160.793V158.872H160.604V158.966H160.793V159.345C160.793 159.535 160.888 159.63 161.078 159.63C161.172 159.63 161.267 159.63 161.267 159.535L161.172 159.44C161.172 159.44 161.078 159.535 160.983 159.535C160.888 159.535 160.793 159.44 160.793 159.345V158.966H161.172V158.872H161.267ZM161.551 158.493H161.457V159.63H161.551V159.156C161.551 158.966 161.646 158.966 161.836 158.966C162.025 158.966 162.025 159.061 162.025 159.156V159.63H162.12V159.156C162.12 158.966 162.025 158.872 161.836 158.872C161.741 158.872 161.646 158.872 161.551 158.966V158.493V158.493Z" fill="white"/>
<path d="M147.53 155.65C147.245 155.461 146.866 155.461 146.487 155.461C145.824 155.461 145.445 155.745 145.445 156.219C145.445 156.598 145.73 156.882 146.298 156.882H146.487C146.772 156.882 146.866 156.977 146.866 157.072C146.866 157.166 146.677 157.261 146.393 157.261C146.014 157.261 145.824 157.166 145.54 157.072L145.256 157.545C145.54 157.735 146.014 157.829 146.298 157.829C146.961 157.829 147.435 157.545 147.435 157.072C147.435 156.693 147.151 156.408 146.582 156.408H146.393C146.203 156.408 146.014 156.314 146.014 156.219C146.014 156.124 146.109 156.029 146.393 156.029C146.677 156.029 146.961 156.124 147.151 156.219L147.53 155.65ZM149.33 155.461C149.045 155.461 148.761 155.556 148.572 155.745V155.461H147.909V158.777H148.572V157.545C148.761 157.735 148.951 157.829 149.235 157.829C149.898 157.829 150.372 157.261 150.372 156.598C150.466 155.935 149.993 155.461 149.33 155.461ZM149.14 156.029C149.519 156.029 149.803 156.314 149.803 156.693C149.803 157.072 149.519 157.356 149.14 157.356C148.761 157.356 148.477 157.072 148.477 156.693C148.477 156.314 148.761 156.029 149.14 156.029ZM152.172 155.461C151.888 155.461 151.603 155.556 151.509 155.745V155.461H150.845V157.829H151.509V156.503C151.509 156.124 151.698 155.935 151.982 155.935C152.077 155.935 152.267 155.935 152.361 156.029L152.456 155.366C152.361 155.461 152.267 155.461 152.172 155.461ZM153.403 155.461H152.74V157.829H153.403V155.461ZM153.119 154.324C152.93 154.324 152.74 154.514 152.74 154.703C152.74 154.893 152.93 155.082 153.119 155.082C153.309 155.082 153.498 154.893 153.498 154.703C153.498 154.514 153.309 154.324 153.119 154.324ZM155.298 155.461C155.014 155.461 154.73 155.556 154.635 155.84V155.556H153.972V157.924H154.635V156.598C154.635 156.219 154.824 156.029 155.109 156.029C155.393 156.029 155.582 156.219 155.582 156.598V157.924H156.246V156.408C156.246 155.84 155.867 155.461 155.298 155.461ZM158.519 155.461H157.667V154.798H157.003V155.461H156.53V156.029H157.003V156.977C157.003 157.545 157.288 157.924 157.951 157.924C158.33 157.924 158.519 157.829 158.709 157.64L158.425 157.166C158.33 157.261 158.14 157.356 157.951 157.356C157.761 157.356 157.572 157.261 157.572 156.977V156.124H158.425V155.461H158.519ZM159.94 155.461C159.182 155.461 158.709 155.935 158.709 156.693C158.709 157.451 159.182 157.924 159.94 157.924C160.319 157.924 160.698 157.829 160.982 157.545L160.604 157.166C160.414 157.356 160.225 157.356 160.035 157.356C159.751 157.356 159.467 157.166 159.372 156.882H161.077C161.077 156.787 161.077 156.787 161.077 156.693C161.077 155.935 160.604 155.461 159.94 155.461ZM159.94 156.029C160.225 156.029 160.414 156.219 160.509 156.503H159.467C159.467 156.219 159.656 156.029 159.94 156.029ZM162.783 155.461C162.498 155.461 162.214 155.556 162.119 155.745V155.461H161.456V157.829H162.119V156.503C162.119 156.124 162.309 155.935 162.593 155.935C162.688 155.935 162.877 155.935 162.972 156.029L163.067 155.366C163.067 155.461 162.972 155.461 162.783 155.461Z" fill="white"/>
<path fill-rule="evenodd" clip-rule="evenodd" d="M142.792 154.324C143.74 154.324 144.498 154.987 144.592 155.84H143.55C143.455 155.84 143.361 155.935 143.361 155.935L143.171 156.314L142.982 156.029L142.508 155.082C142.508 154.987 142.413 154.987 142.319 154.987C142.224 154.987 142.129 155.082 142.129 155.082L141.845 155.84H140.992C141.087 154.987 141.845 154.324 142.792 154.324ZM144.592 156.314C144.592 156.598 144.498 156.787 144.403 156.977L142.792 159.63L141.182 156.977C141.087 156.787 140.992 156.503 140.992 156.314H142.034C142.129 156.314 142.224 156.219 142.224 156.219L142.413 155.84L142.603 156.124L143.076 157.072C143.076 157.166 143.171 157.166 143.266 157.166C143.361 157.166 143.455 157.072 143.455 157.072L143.74 156.314H144.592Z" fill="white"/>
<path d="M359.746 1.22638V45.4694" stroke="#2E3B5E" stroke-miterlimit="10" stroke-linecap="round" stroke-linejoin="round"/>
<path d="M359.744 68.5856C364.087 68.5856 367.607 65.0651 367.607 60.7223C367.607 56.3795 364.087 52.859 359.744 52.859C355.401 52.859 351.881 56.3795 351.881 60.7223C351.881 65.0651 355.401 68.5856 359.744 68.5856Z" fill="url(#paint91_linear)"/>
<path d="M325.166 60.7223L347.524 38.364C354.251 31.6375 365.146 31.6375 371.872 38.364L394.231 60.7223H325.166Z" fill="url(#paint92_linear)"/>
<defs>
<linearGradient id="paint0_linear" x1="266.656" y1="321.845" x2="266.656" y2="-294.343" gradientUnits="userSpaceOnUse">
<stop stop-color="white"/>
<stop offset="1" stop-color="#6371BA"/>
</linearGradient>
<linearGradient id="paint1_linear" x1="259.678" y1="414.288" x2="259.678" y2="29.5207" gradientUnits="userSpaceOnUse">
<stop stop-color="white"/>
<stop offset="1" stop-color="#6371BA"/>
</linearGradient>
<linearGradient id="paint2_linear" x1="238.413" y1="258.278" x2="238.413" y2="69.3515" gradientUnits="userSpaceOnUse">
<stop stop-color="white"/>
<stop offset="1" stop-color="#6371BA"/>
</linearGradient>
<linearGradient id="paint3_linear" x1="238.414" y1="130.487" x2="238.414" y2="-145.887" gradientUnits="userSpaceOnUse">
<stop stop-color="white"/>
<stop offset="1" stop-color="#6371BA"/>
</linearGradient>
<linearGradient id="paint4_linear" x1="133.193" y1="291.084" x2="127.966" y2="372.486" gradientUnits="userSpaceOnUse">
<stop stop-color="#F13B42"/>
<stop offset="1" stop-color="#F9B7A2"/>
</linearGradient>
<linearGradient id="paint5_linear" x1="49.6136" y1="291.084" x2="54.8413" y2="372.486" gradientUnits="userSpaceOnUse">
<stop stop-color="#F13B42"/>
<stop offset="1" stop-color="#F9B7A2"/>
</linearGradient>
<linearGradient id="paint6_linear" x1="158.773" y1="291.084" x2="153.546" y2="372.486" gradientUnits="userSpaceOnUse">
<stop stop-color="#F13B42"/>
<stop offset="1" stop-color="#F9B7A2"/>
</linearGradient>
<linearGradient id="paint7_linear" x1="75.1937" y1="291.084" x2="80.4214" y2="372.486" gradientUnits="userSpaceOnUse">
<stop stop-color="#F13B42"/>
<stop offset="1" stop-color="#F9B7A2"/>
</linearGradient>
<linearGradient id="paint8_linear" x1="118.293" y1="525.521" x2="118.293" y2="227.78" gradientUnits="userSpaceOnUse">
<stop stop-color="white"/>
<stop offset="1" stop-color="#6371BA"/>
</linearGradient>
<linearGradient id="paint9_linear" x1="88.9821" y1="132.071" x2="88.9821" y2="542.111" gradientUnits="userSpaceOnUse">
<stop stop-color="white"/>
<stop offset="1" stop-color="#6371BA"/>
</linearGradient>
<linearGradient id="paint10_linear" x1="54.9833" y1="135.855" x2="140.411" y2="177.203" gradientUnits="userSpaceOnUse">
<stop stop-color="#74DBC8"/>
<stop offset="1" stop-color="#3674AC"/>
</linearGradient>
<linearGradient id="paint11_linear" x1="93.7057" y1="101.731" x2="97.6855" y2="196.555" gradientUnits="userSpaceOnUse">
<stop stop-color="#74DBC8"/>
<stop offset="1" stop-color="#3674AC"/>
</linearGradient>
<linearGradient id="paint12_linear" x1="105.982" y1="136.16" x2="94.817" y2="194.346" gradientUnits="userSpaceOnUse">
<stop stop-color="#74DBC8"/>
<stop offset="1" stop-color="#3674AC"/>
</linearGradient>
<linearGradient id="paint13_linear" x1="57.0679" y1="154.158" x2="147.841" y2="217.285" gradientUnits="userSpaceOnUse">
<stop stop-color="#74DBC8"/>
<stop offset="1" stop-color="#3674AC"/>
</linearGradient>
<linearGradient id="paint14_linear" x1="71.5644" y1="238.13" x2="134.652" y2="238.13" gradientUnits="userSpaceOnUse">
<stop stop-color="#6371BA"/>
<stop offset="1" stop-color="#36369C"/>
</linearGradient>
<linearGradient id="paint15_linear" x1="29.3823" y1="224.204" x2="122.782" y2="224.204" gradientUnits="userSpaceOnUse">
<stop stop-color="#6371BA"/>
<stop offset="1" stop-color="#36369C"/>
</linearGradient>
<linearGradient id="paint16_linear" x1="124.96" y1="185.169" x2="64.1414" y2="245.987" gradientUnits="userSpaceOnUse">
<stop stop-color="#74DBC8"/>
<stop offset="1" stop-color="#3674AC"/>
</linearGradient>
<linearGradient id="paint17_linear" x1="142.933" y1="185.846" x2="57.3804" y2="194.682" gradientUnits="userSpaceOnUse">
<stop stop-color="#74DBC8"/>
<stop offset="1" stop-color="#3674AC"/>
</linearGradient>
<linearGradient id="paint18_linear" x1="158.316" y1="176.302" x2="72.7628" y2="185.138" gradientUnits="userSpaceOnUse">
<stop stop-color="#74DBC8"/>
<stop offset="1" stop-color="#3674AC"/>
</linearGradient>
<linearGradient id="paint19_linear" x1="125.557" y1="129.652" x2="132.174" y2="215.405" gradientUnits="userSpaceOnUse">
<stop stop-color="#74DBC8"/>
<stop offset="1" stop-color="#3674AC"/>
</linearGradient>
<linearGradient id="paint20_linear" x1="107.337" y1="139.541" x2="110.798" y2="225.483" gradientUnits="userSpaceOnUse">
<stop stop-color="#74DBC8"/>
<stop offset="1" stop-color="#3674AC"/>
</linearGradient>
<linearGradient id="paint21_linear" x1="52.3049" y1="183.481" x2="137.733" y2="224.829" gradientUnits="userSpaceOnUse">
<stop stop-color="#74DBC8"/>
<stop offset="1" stop-color="#3674AC"/>
</linearGradient>
<linearGradient id="paint22_linear" x1="284.835" y1="275.326" x2="291.544" y2="379.796" gradientUnits="userSpaceOnUse">
<stop stop-color="#F13B42"/>
<stop offset="1" stop-color="#F9B7A2"/>
</linearGradient>
<linearGradient id="paint23_linear" x1="452.801" y1="275.326" x2="446.091" y2="379.796" gradientUnits="userSpaceOnUse">
<stop stop-color="#F13B42"/>
<stop offset="1" stop-color="#F9B7A2"/>
</linearGradient>
<linearGradient id="paint24_linear" x1="365.157" y1="73.1726" x2="365.157" y2="338.04" gradientUnits="userSpaceOnUse">
<stop stop-color="white"/>
<stop offset="1" stop-color="#6371BA"/>
</linearGradient>
<linearGradient id="paint25_linear" x1="502.132" y1="34.8462" x2="434.746" y2="386.034" gradientUnits="userSpaceOnUse">
<stop stop-color="white"/>
<stop offset="1" stop-color="#6371BA"/>
</linearGradient>
<linearGradient id="paint26_linear" x1="487.849" y1="126.231" x2="487.849" y2="276.852" gradientUnits="userSpaceOnUse">
<stop stop-color="white"/>
<stop offset="1" stop-color="#6371BA"/>
</linearGradient>
<linearGradient id="paint27_linear" x1="254.149" y1="275.326" x2="260.858" y2="379.796" gradientUnits="userSpaceOnUse">
<stop stop-color="#F13B42"/>
<stop offset="1" stop-color="#F9B7A2"/>
</linearGradient>
<linearGradient id="paint28_linear" x1="422.116" y1="275.326" x2="415.407" y2="379.796" gradientUnits="userSpaceOnUse">
<stop stop-color="#F13B42"/>
<stop offset="1" stop-color="#F9B7A2"/>
</linearGradient>
<linearGradient id="paint29_linear" x1="250.872" y1="148.589" x2="250.872" y2="331.844" gradientUnits="userSpaceOnUse">
<stop stop-color="white"/>
<stop offset="1" stop-color="#6371BA"/>
</linearGradient>
<linearGradient id="paint30_linear" x1="345.325" y1="193.617" x2="345.325" y2="329.299" gradientUnits="userSpaceOnUse">
<stop stop-color="white"/>
<stop offset="1" stop-color="#6371BA"/>
</linearGradient>
<linearGradient id="paint31_linear" x1="338.133" y1="130.119" x2="338.133" y2="486.336" gradientUnits="userSpaceOnUse">
<stop stop-color="white"/>
<stop offset="1" stop-color="#6371BA"/>
</linearGradient>
<linearGradient id="paint32_linear" x1="215.999" y1="417.104" x2="215.999" y2="258.104" gradientUnits="userSpaceOnUse">
<stop stop-color="white"/>
<stop offset="1" stop-color="#6371BA"/>
</linearGradient>
<linearGradient id="paint33_linear" x1="460.425" y1="417.104" x2="460.425" y2="258.104" gradientUnits="userSpaceOnUse">
<stop stop-color="white"/>
<stop offset="1" stop-color="#6371BA"/>
</linearGradient>
<linearGradient id="paint34_linear" x1="320.965" y1="261.148" x2="238.615" y2="243.619" gradientUnits="userSpaceOnUse">
<stop stop-color="#F13B42"/>
<stop offset="1" stop-color="#F9B7A2"/>
</linearGradient>
<linearGradient id="paint35_linear" x1="275.514" y1="166.124" x2="299.44" y2="264.839" gradientUnits="userSpaceOnUse">
<stop stop-color="#74DBC8"/>
<stop offset="1" stop-color="#3674AC"/>
</linearGradient>
<linearGradient id="paint36_linear" x1="247.965" y1="243.351" x2="218.89" y2="391.166" gradientUnits="userSpaceOnUse">
<stop stop-color="#F13B42"/>
<stop offset="1" stop-color="#F9B7A2"/>
</linearGradient>
<linearGradient id="paint37_linear" x1="207.215" y1="404.209" x2="223.597" y2="359.191" gradientUnits="userSpaceOnUse">
<stop stop-color="#6371BA"/>
<stop offset="1" stop-color="#36369C"/>
</linearGradient>
<linearGradient id="paint38_linear" x1="209.367" y1="414.264" x2="230.193" y2="357.036" gradientUnits="userSpaceOnUse">
<stop stop-color="white"/>
<stop offset="1" stop-color="#6371BA"/>
</linearGradient>
<linearGradient id="paint39_linear" x1="227.098" y1="357.007" x2="378.488" y2="197.523" gradientUnits="userSpaceOnUse">
<stop stop-color="#6371BA"/>
<stop offset="0.9944" stop-color="#1A1D36"/>
</linearGradient>
<linearGradient id="paint40_linear" x1="292.581" y1="252.195" x2="263.507" y2="400.01" gradientUnits="userSpaceOnUse">
<stop stop-color="#F13B42"/>
<stop offset="1" stop-color="#F9B7A2"/>
</linearGradient>
<linearGradient id="paint41_linear" x1="251.831" y1="413.052" x2="268.214" y2="368.034" gradientUnits="userSpaceOnUse">
<stop stop-color="#6371BA"/>
<stop offset="1" stop-color="#36369C"/>
</linearGradient>
<linearGradient id="paint42_linear" x1="253.983" y1="423.107" x2="274.809" y2="365.879" gradientUnits="userSpaceOnUse">
<stop stop-color="white"/>
<stop offset="1" stop-color="#6371BA"/>
</linearGradient>
<linearGradient id="paint43_linear" x1="241.751" y1="378.865" x2="485.653" y2="118.136" gradientUnits="userSpaceOnUse">
<stop stop-color="#6371BA"/>
<stop offset="0.9944" stop-color="#1A1D36"/>
</linearGradient>
<linearGradient id="paint44_linear" x1="352.706" y1="168.853" x2="332.145" y2="264.496" gradientUnits="userSpaceOnUse">
<stop stop-color="#74DBC8"/>
<stop offset="1" stop-color="#3674AC"/>
</linearGradient>
<linearGradient id="paint45_linear" x1="388.055" y1="114.832" x2="341.28" y2="165.708" gradientUnits="userSpaceOnUse">
<stop stop-color="#F13B42"/>
<stop offset="1" stop-color="#F9B7A2"/>
</linearGradient>
<linearGradient id="paint46_linear" x1="328.229" y1="147.578" x2="331.644" y2="193.441" gradientUnits="userSpaceOnUse">
<stop stop-color="#74DBC8"/>
<stop offset="1" stop-color="#3674AC"/>
</linearGradient>
<linearGradient id="paint47_linear" x1="320.209" y1="165.795" x2="319.095" y2="139.27" gradientUnits="userSpaceOnUse">
<stop stop-color="#F13B42"/>
<stop offset="1" stop-color="#F9B7A2"/>
</linearGradient>
<linearGradient id="paint48_linear" x1="339.767" y1="100.483" x2="313.229" y2="155.224" gradientUnits="userSpaceOnUse">
<stop stop-color="white"/>
<stop offset="1" stop-color="#6371BA"/>
</linearGradient>
<linearGradient id="paint49_linear" x1="391.135" y1="84.7924" x2="326.627" y2="154.955" gradientUnits="userSpaceOnUse">
<stop stop-color="#F13B42"/>
<stop offset="1" stop-color="#F9B7A2"/>
</linearGradient>
<linearGradient id="paint50_linear" x1="330.033" y1="136.176" x2="335.512" y2="199.556" gradientUnits="userSpaceOnUse">
<stop stop-color="#6371BA"/>
<stop offset="0.9944" stop-color="#1A1D36"/>
</linearGradient>
<linearGradient id="paint51_linear" x1="364.777" y1="112.609" x2="338.239" y2="167.349" gradientUnits="userSpaceOnUse">
<stop stop-color="white"/>
<stop offset="1" stop-color="#6371BA"/>
</linearGradient>
<linearGradient id="paint52_linear" x1="333.179" y1="118.755" x2="328.32" y2="144.699" gradientUnits="userSpaceOnUse">
<stop stop-color="#F13B42"/>
<stop offset="1" stop-color="#F9B7A2"/>
</linearGradient>
<linearGradient id="paint53_linear" x1="333.059" y1="118.733" x2="328.2" y2="144.677" gradientUnits="userSpaceOnUse">
<stop stop-color="#F13B42"/>
<stop offset="1" stop-color="#F9B7A2"/>
</linearGradient>
<linearGradient id="paint54_linear" x1="408.264" y1="259.201" x2="299.005" y2="264.713" gradientUnits="userSpaceOnUse">
<stop stop-color="#F13B42"/>
<stop offset="1" stop-color="#F9B7A2"/>
</linearGradient>
<linearGradient id="paint55_linear" x1="348.624" y1="165.082" x2="341.042" y2="283.746" gradientUnits="userSpaceOnUse">
<stop stop-color="#74DBC8"/>
<stop offset="1" stop-color="#3674AC"/>
</linearGradient>
<linearGradient id="paint56_linear" x1="342.839" y1="137.905" x2="347.456" y2="199.921" gradientUnits="userSpaceOnUse">
<stop stop-color="#74DBC8"/>
<stop offset="1" stop-color="#3674AC"/>
</linearGradient>
<linearGradient id="paint57_linear" x1="139.912" y1="30.9674" x2="194.545" y2="282.776" gradientUnits="userSpaceOnUse">
<stop stop-color="#F13B42"/>
<stop offset="1" stop-color="#F9B7A2"/>
</linearGradient>
<linearGradient id="paint58_linear" x1="202.033" y1="216.397" x2="202.033" y2="261.987" gradientUnits="userSpaceOnUse">
<stop stop-color="white"/>
<stop offset="1" stop-color="#6371BA"/>
</linearGradient>
<linearGradient id="paint59_linear" x1="172.865" y1="216.397" x2="172.865" y2="261.987" gradientUnits="userSpaceOnUse">
<stop stop-color="white"/>
<stop offset="1" stop-color="#6371BA"/>
</linearGradient>
<linearGradient id="paint60_linear" x1="191.416" y1="194.864" x2="191.416" y2="301.974" gradientUnits="userSpaceOnUse">
<stop stop-color="white"/>
<stop offset="1" stop-color="#6371BA"/>
</linearGradient>
<linearGradient id="paint61_linear" x1="179.995" y1="249.183" x2="179.995" y2="360.536" gradientUnits="userSpaceOnUse">
<stop stop-color="white"/>
<stop offset="1" stop-color="#6371BA"/>
</linearGradient>
<linearGradient id="paint62_linear" x1="176.943" y1="227.196" x2="176.943" y2="312.056" gradientUnits="userSpaceOnUse">
<stop stop-color="white"/>
<stop offset="1" stop-color="#6371BA"/>
</linearGradient>
<linearGradient id="paint63_linear" x1="142.271" y1="293.929" x2="419.716" y2="293.929" gradientUnits="userSpaceOnUse">
<stop stop-color="white"/>
<stop offset="1" stop-color="#6371BA"/>
</linearGradient>
<linearGradient id="paint64_linear" x1="182.544" y1="216.398" x2="182.544" y2="261.986" gradientUnits="userSpaceOnUse">
<stop stop-color="white"/>
<stop offset="1" stop-color="#6371BA"/>
</linearGradient>
<linearGradient id="paint65_linear" x1="185.706" y1="224.868" x2="185.706" y2="264.465" gradientUnits="userSpaceOnUse">
<stop stop-color="#6371BA"/>
<stop offset="1" stop-color="#36369C"/>
</linearGradient>
<linearGradient id="paint66_linear" x1="188.361" y1="245.88" x2="188.361" y2="314.202" gradientUnits="userSpaceOnUse">
<stop stop-color="white"/>
<stop offset="1" stop-color="#6371BA"/>
</linearGradient>
<linearGradient id="paint67_linear" x1="178.88" y1="245.88" x2="178.88" y2="314.202" gradientUnits="userSpaceOnUse">
<stop stop-color="white"/>
<stop offset="1" stop-color="#6371BA"/>
</linearGradient>
<linearGradient id="paint68_linear" x1="159.027" y1="245.88" x2="159.027" y2="314.202" gradientUnits="userSpaceOnUse">
<stop stop-color="white"/>
<stop offset="1" stop-color="#6371BA"/>
</linearGradient>
<linearGradient id="paint69_linear" x1="191.636" y1="207.455" x2="195" y2="254.148" gradientUnits="userSpaceOnUse">
<stop stop-color="#F13B42"/>
<stop offset="1" stop-color="#F9B7A2"/>
</linearGradient>
<linearGradient id="paint70_linear" x1="187.019" y1="207.788" x2="190.382" y2="254.48" gradientUnits="userSpaceOnUse">
<stop stop-color="#F13B42"/>
<stop offset="1" stop-color="#F9B7A2"/>
</linearGradient>
<linearGradient id="paint71_linear" x1="182.419" y1="208.119" x2="185.783" y2="254.812" gradientUnits="userSpaceOnUse">
<stop stop-color="#F13B42"/>
<stop offset="1" stop-color="#F9B7A2"/>
</linearGradient>
<linearGradient id="paint72_linear" x1="177.076" y1="208.504" x2="180.439" y2="255.197" gradientUnits="userSpaceOnUse">
<stop stop-color="#F13B42"/>
<stop offset="1" stop-color="#F9B7A2"/>
</linearGradient>
<linearGradient id="paint73_linear" x1="147.476" y1="87.0458" x2="180.488" y2="282.419" gradientUnits="userSpaceOnUse">
<stop stop-color="#6371BA"/>
<stop offset="1" stop-color="#36369C"/>
</linearGradient>
<linearGradient id="paint74_linear" x1="169.98" y1="321.588" x2="169.98" y2="400.779" gradientUnits="userSpaceOnUse">
<stop stop-color="#F13B42"/>
<stop offset="1" stop-color="#F9B7A2"/>
</linearGradient>
<linearGradient id="paint75_linear" x1="171.111" y1="290.613" x2="171.111" y2="380.724" gradientUnits="userSpaceOnUse">
<stop stop-color="white"/>
<stop offset="1" stop-color="#6371BA"/>
</linearGradient>
<linearGradient id="paint76_linear" x1="113.605" y1="325.56" x2="100.111" y2="396.524" gradientUnits="userSpaceOnUse">
<stop stop-color="#F13B42"/>
<stop offset="1" stop-color="#F9B7A2"/>
</linearGradient>
<linearGradient id="paint77_linear" x1="119.898" y1="297.995" x2="104.543" y2="378.745" gradientUnits="userSpaceOnUse">
<stop stop-color="white"/>
<stop offset="1" stop-color="#6371BA"/>
</linearGradient>
<linearGradient id="paint78_linear" x1="151.876" y1="197.259" x2="151.876" y2="451.247" gradientUnits="userSpaceOnUse">
<stop stop-color="#6371BA"/>
<stop offset="1" stop-color="#36369C"/>
</linearGradient>
<linearGradient id="paint79_linear" x1="137.794" y1="187.251" x2="137.794" y2="284.467" gradientUnits="userSpaceOnUse">
<stop stop-color="#6371BA"/>
<stop offset="1" stop-color="#36369C"/>
</linearGradient>
<linearGradient id="paint80_linear" x1="113.301" y1="197.259" x2="113.301" y2="451.247" gradientUnits="userSpaceOnUse">
<stop stop-color="#6371BA"/>
<stop offset="1" stop-color="#36369C"/>
</linearGradient>
<linearGradient id="paint81_linear" x1="114.474" y1="88.4739" x2="152.178" y2="302.752" gradientUnits="userSpaceOnUse">
<stop stop-color="#6371BA"/>
<stop offset="1" stop-color="#36369C"/>
</linearGradient>
<linearGradient id="paint82_linear" x1="132.578" y1="63.0106" x2="131.384" y2="126.276" gradientUnits="userSpaceOnUse">
<stop stop-color="#F13B42"/>
<stop offset="1" stop-color="#F9B7A2"/>
</linearGradient>
<linearGradient id="paint83_linear" x1="77.9531" y1="49.1967" x2="147.653" y2="101.166" gradientUnits="userSpaceOnUse">
<stop stop-color="#F13B42"/>
<stop offset="1" stop-color="#F9B7A2"/>
</linearGradient>
<linearGradient id="paint84_linear" x1="102.188" y1="69.7626" x2="153.055" y2="129.278" gradientUnits="userSpaceOnUse">
<stop stop-color="#C27674"/>
<stop offset="0.9944" stop-color="#682E54"/>
</linearGradient>
<linearGradient id="paint85_linear" x1="135.351" y1="95.6552" x2="161.158" y2="151.894" gradientUnits="userSpaceOnUse">
<stop stop-color="white"/>
<stop offset="1" stop-color="#6371BA"/>
</linearGradient>
<linearGradient id="paint86_linear" x1="137.464" y1="203.574" x2="66.0762" y2="309.903" gradientUnits="userSpaceOnUse">
<stop stop-color="white"/>
<stop offset="1" stop-color="#6371BA"/>
</linearGradient>
<linearGradient id="paint87_linear" x1="122.018" y1="213.677" x2="109.309" y2="274.375" gradientUnits="userSpaceOnUse">
<stop stop-color="white"/>
<stop offset="1" stop-color="#6371BA"/>
</linearGradient>
<linearGradient id="paint88_linear" x1="133.26" y1="186.711" x2="119.06" y2="230.159" gradientUnits="userSpaceOnUse">
<stop stop-color="white"/>
<stop offset="1" stop-color="#6371BA"/>
</linearGradient>
<linearGradient id="paint89_linear" x1="108.345" y1="35.1826" x2="100.539" y2="245.969" gradientUnits="userSpaceOnUse">
<stop stop-color="#F13B42"/>
<stop offset="1" stop-color="#F9B7A2"/>
</linearGradient>
<linearGradient id="paint90_linear" x1="138.967" y1="106.593" x2="-23.5352" y2="261.376" gradientUnits="userSpaceOnUse">
<stop stop-color="#6371BA"/>
<stop offset="1" stop-color="#36369C"/>
</linearGradient>
<linearGradient id="paint91_linear" x1="361.247" y1="95.9349" x2="359.438" y2="53.8053" gradientUnits="userSpaceOnUse">
<stop stop-color="white"/>
<stop offset="1" stop-color="#6371BA"/>
</linearGradient>
<linearGradient id="paint92_linear" x1="323.522" y1="47.0302" x2="538.427" y2="47.0302" gradientUnits="userSpaceOnUse">
<stop stop-color="white"/>
<stop offset="1" stop-color="#6371BA"/>
</linearGradient>
</defs>
</svg>
