<svg width="368" height="298" viewBox="0 0 368 298" fill="none" xmlns="http://www.w3.org/2000/svg">
<path d="M65.4506 209.066V240.509C65.4506 242.009 66.0508 243.443 67.0845 244.477L86.2906 263.683C87.3576 264.75 88.7914 265.317 90.2918 265.317H121.735C139.274 274.286 159.147 279.321 180.187 279.321C201.227 279.321 221.1 274.286 238.639 265.317H270.082C271.583 265.317 273.017 264.717 274.05 263.683L293.256 244.477C294.323 243.41 294.89 241.976 294.89 240.509V209.066C303.86 191.527 308.895 171.654 308.895 150.614C308.895 129.574 303.86 109.701 294.89 92.1619V60.7186C294.89 59.2182 294.29 57.7844 293.256 56.7507L274.05 37.5446C272.983 36.4776 271.549 35.9108 270.082 35.9108H238.639C221.1 26.9412 201.227 21.9063 180.187 21.9063C159.147 21.9063 139.274 26.9412 121.735 35.9108H90.2918C88.7914 35.9108 87.3576 36.5109 86.2906 37.5446L67.0845 56.7507C66.0175 57.8177 65.4506 59.2515 65.4506 60.7186V92.1619C56.5144 109.701 51.4462 129.574 51.4462 150.614C51.4462 171.654 56.5144 191.527 65.4506 209.066Z" fill="#C7FA73" stroke="white" stroke-width="2" stroke-miterlimit="10" stroke-linecap="round" stroke-linejoin="round"/>
<path d="M103.563 62.3192L103.496 62.2191C103.163 61.819 102.829 61.4522 102.462 61.1188L98.261 56.5507L97.4274 57.5843C97.3941 57.551 97.3274 57.551 97.2941 57.5176L97.194 57.8844L93.793 62.0524L95.9603 62.986L92.4258 77.5907C91.6923 80.625 88.658 83.0591 85.6237 83.0591H76.6542C73.6199 83.0591 71.786 80.625 72.4862 77.5907L75.9873 63.1528L77.3544 57.5176L72.1861 52.5161C72.1861 52.5161 67.3179 57.0842 66.9844 57.5176C66.9844 57.5176 65.5507 62.5859 64.3836 66.1871C60.3823 70.3884 57.348 75.5234 56.0143 81.0584C53.7136 90.6281 56.9479 98.9641 63.65 103.332L33.5405 228.372C26.4716 232.44 20.8031 239.342 18.9025 247.211C17.6688 252.279 18.2356 256.981 20.1362 260.749C19.536 262.716 19.0359 264.45 19.0359 264.45L21.3033 268.351L27.7053 268.051L31.9733 250.312C32.6069 247.645 35.3077 245.477 37.9752 245.477H45.9111C48.5786 245.477 50.2124 247.645 49.5789 250.312L46.9781 261.049C45.0441 262.749 42.4433 264.983 42.4433 264.983C42.2099 265.15 39.3423 268.351 39.3423 268.351L45.3109 268.051C54.2471 264.617 61.8828 256.581 64.1502 247.211C66.0508 239.342 63.7167 232.44 58.5818 228.372L88.758 103.332C97.6275 98.9641 104.896 90.5948 107.231 81.0251C108.998 73.6227 107.464 66.9873 103.563 62.3192Z" fill="black"/>
<path d="M103.563 62.3192L103.496 62.2191C103.163 61.819 102.829 61.4522 102.462 61.1188L98.261 56.5507L97.4274 57.5843C97.3941 57.551 97.3274 57.551 97.2941 57.5176L97.194 57.8844L93.793 62.0524L95.9603 62.986L92.4259 77.5907C91.6923 80.625 88.658 83.0591 85.6237 83.0591H81.289L39.209 245.477H45.9111C48.5786 245.477 50.2124 247.645 49.5789 250.312L46.9781 261.049C45.0441 262.749 42.4433 264.983 42.4433 264.983C42.2099 265.15 39.3423 268.351 39.3423 268.351L45.3109 268.051C54.2471 264.617 61.8828 256.581 64.1502 247.211C66.0508 239.342 63.7167 232.44 58.5818 228.372L88.758 103.332C97.6275 98.9641 104.896 90.5948 107.231 81.0251C108.998 73.6227 107.464 66.9873 103.563 62.3192Z" fill="white"/>
<path d="M103.563 62.3192L103.496 62.2191C103.163 61.819 102.829 61.4522 102.462 61.1188L98.261 56.5507L97.4274 57.5843C97.3941 57.551 97.3274 57.551 97.2941 57.5176L97.194 57.8844L93.793 62.0524L95.9603 62.986L92.4258 77.5907C91.6923 80.625 88.658 83.0591 85.6237 83.0591H76.6542C73.6199 83.0591 71.786 80.625 72.4862 77.5907L75.9873 63.1528L77.3544 57.5176L72.1861 52.5161C72.1861 52.5161 67.3179 57.0842 66.9844 57.5176C66.9844 57.5176 65.5507 62.5859 64.3836 66.1871C60.3823 70.3884 57.348 75.5234 56.0143 81.0584C53.7136 90.6281 56.9479 98.9641 63.65 103.332L33.5405 228.372C26.4716 232.44 20.8031 239.342 18.9025 247.211C17.6688 252.279 18.2356 256.981 20.1362 260.749C19.536 262.716 19.0359 264.45 19.0359 264.45L21.3033 268.351L27.7053 268.051L31.9733 250.312C32.6069 247.645 35.3077 245.477 37.9752 245.477H45.9111C48.5786 245.477 50.2124 247.645 49.5789 250.312L46.9781 261.049C45.0441 262.749 42.4433 264.983 42.4433 264.983C42.2099 265.15 39.3423 268.351 39.3423 268.351L45.3109 268.051C54.2471 264.617 61.8828 256.581 64.1502 247.211C66.0508 239.342 63.7167 232.44 58.5818 228.372L88.758 103.332C97.6275 98.9641 104.896 90.5948 107.231 81.0251C108.998 73.6227 107.464 66.9873 103.563 62.3192Z" stroke="black" stroke-width="1.2" stroke-miterlimit="10" stroke-linecap="round" stroke-linejoin="round"/>
<path d="M92.6259 52.4827L87.6577 73.0559C86.9241 76.1569 83.7898 78.6577 80.6888 78.6577H71.4859C68.3849 78.6577 66.4843 76.1569 67.2178 73.0559L72.1861 52.4827C61.8161 56.4507 52.98 65.7869 50.3458 76.6571C47.9784 86.4602 51.3128 94.9962 58.1816 99.4976L27.2718 227.705C20.0362 231.873 14.201 238.975 12.2671 247.011C9.93299 256.614 13.8009 264.85 21.2699 268.385L25.6713 250.179C26.3382 247.445 29.1057 245.211 31.8399 245.211H39.9759C42.7101 245.211 44.4106 247.445 43.7437 250.179L39.3423 268.385C48.5119 264.85 56.3477 256.614 58.6485 247.011C60.5824 238.942 58.1816 231.84 52.9466 227.705L82.0559 107.133C83.1229 102.699 85.7904 98.8308 89.4916 96.0966C95.9603 91.295 100.962 84.3595 102.829 76.6237C105.43 65.787 101.095 56.4507 92.6259 52.4827Z" fill="#C7FA73" stroke="black" stroke-width="1.2" stroke-miterlimit="10" stroke-linecap="round" stroke-linejoin="round"/>
<path d="M41.2096 226.938C40.9095 226.938 40.6094 226.905 40.276 226.838C38.1753 226.338 36.8749 224.237 37.4084 222.137L66.2509 102.699C66.751 100.598 68.8517 99.2976 70.9524 99.8311C73.053 100.331 74.3534 102.432 73.8199 104.533L45.0108 223.937C44.5773 225.738 42.9768 226.938 41.2096 226.938Z" fill="#C7FA73" stroke="black" stroke-width="1.2" stroke-miterlimit="10" stroke-linecap="round" stroke-linejoin="round"/>
<path d="M40.2426 223.003L69.0518 103.599C69.4519 101.932 70.8857 100.765 72.5195 100.631C72.0861 100.265 71.5525 99.9978 70.9524 99.8311C68.8517 99.3309 66.751 100.598 66.2509 102.699L37.4417 222.103C36.9416 224.204 38.2086 226.305 40.3093 226.805C40.6094 226.871 40.9095 226.905 41.2429 226.905C41.343 226.905 41.443 226.905 41.5764 226.905C40.4427 226.004 39.8758 224.504 40.2426 223.003Z" fill="black"/>
<path d="M162.481 46.6142L143.775 44.3135L144.176 78.591L176.653 55.4503L162.481 46.6142Z" fill="black" stroke="black" stroke-width="1.2" stroke-miterlimit="10" stroke-linecap="round" stroke-linejoin="round"/>
<path d="M186.022 142.378C183.455 108.534 202.694 75.8234 229.769 68.9213C234.538 67.7209 239.239 67.3541 243.774 67.8209L236.372 52.3493C236.372 52.3493 176.019 39.5453 176.352 42.8797C176.686 46.214 146.343 105.933 146.343 105.933L143.009 176.589L162.915 196.062C162.915 196.062 212.231 208.832 213.398 207.865C214.598 206.932 231.77 197.195 231.77 197.195L231.903 196.062C207.929 195.495 188.356 173.054 186.022 142.378Z" fill="black"/>
<path d="M329.501 88.4274L309.928 89.2276C306.527 77.4906 301.492 66.9872 295.224 58.0511L304.827 36.7777C297.091 27.5081 288.188 20.0057 278.418 14.5373L264.647 31.7427C255.944 27.6414 246.575 25.4407 236.838 25.4407L232.337 4.63412C227.135 5.10094 221.867 6.10126 216.599 7.63508C211.364 9.1689 206.262 11.1695 201.394 13.6036L200.427 35.5439C191.624 40.6122 183.621 47.4144 176.653 55.4503L162.515 46.6141C155.212 56.1838 149.044 66.9872 144.176 78.5909L154.812 93.1289C150.944 103.699 148.377 115.002 147.277 126.706L131.905 133.542C131.605 139.777 131.705 146.112 132.138 152.481C132.605 158.85 133.439 165.052 134.606 171.02L150.511 171.087C153.278 182.024 157.48 192.027 162.782 200.763L154.546 219.736C161.048 229.172 173.318 231.773 181.921 238.175L189.89 228.672C197.993 233.673 206.896 236.941 216.365 238.175L225.601 243.577C230.803 243.877 238.239 240.709 243.641 239.942C249.109 239.175 247.575 257.014 252.777 255.214L253.777 232.34C263.313 228.072 272.15 221.803 279.985 213.934L296.424 225.104C305.027 215.401 312.462 204.064 318.331 191.493L305.293 174.655C309.861 163.184 312.929 150.781 314.163 137.876L333.202 130.307C333.502 123.272 333.369 116.136 332.735 109.001C332.102 101.932 331.002 95.0295 329.501 88.4274ZM231.803 197.162C203.594 202.163 179.253 177.722 176.586 142.845C173.985 108.2 193.691 74.6897 221.4 67.6208C250.076 60.3185 276.551 83.8259 279.652 120.538C282.82 157.516 260.979 191.96 231.803 197.162Z" fill="black" stroke="black" stroke-width="1.2" stroke-miterlimit="10" stroke-linecap="round" stroke-linejoin="round"/>
<path d="M213.231 2.60016L232.337 4.63414L236.838 25.4407L217.699 23.2734L213.231 2.60016Z" fill="white" stroke="black" stroke-width="1.2" stroke-miterlimit="10" stroke-linecap="round" stroke-linejoin="round"/>
<path d="M278.418 14.5373L259.012 12.4366C263.047 14.704 267.648 17.7383 272.45 21.7063C277.885 26.1743 282.086 30.6758 285.254 34.577C291.756 35.3106 298.291 36.0775 304.793 36.811C301.559 32.8765 297.324 28.3084 291.822 23.7736C287.054 19.839 282.453 16.8047 278.418 14.5373Z" fill="white" stroke="black" stroke-width="1.2" stroke-miterlimit="10" stroke-linecap="round" stroke-linejoin="round"/>
<path d="M295.19 58.0845L275.717 55.7171L285.254 34.577L304.793 36.8111L295.19 58.0845Z" fill="black" stroke="black" stroke-width="1.2" stroke-miterlimit="10" stroke-linecap="round" stroke-linejoin="round"/>
<path d="M182.254 237.775L164.315 241.043L159.781 238.709L170.984 225.338L189.89 228.672L182.254 237.775Z" fill="black" stroke="black" stroke-width="1.2" stroke-miterlimit="10" stroke-linecap="round" stroke-linejoin="round"/>
<path d="M215.665 258.848C219.966 256.848 227.202 254.147 236.472 253.847C242.674 253.647 247.909 254.613 251.676 255.614C251.943 255.48 252.21 255.314 252.477 255.18L233.537 251.746C228.836 253.413 222.801 255.047 215.698 255.847C210.463 256.447 205.728 256.481 201.727 256.247C206.395 257.114 211.03 257.981 215.665 258.848Z" fill="black" stroke="black" stroke-width="1.2" stroke-miterlimit="10" stroke-linecap="round" stroke-linejoin="round"/>
<path d="M234.538 229.005L253.777 232.373L252.777 255.247L233.537 251.746L234.538 229.005Z" fill="white" stroke="black" stroke-width="1.2" stroke-miterlimit="10" stroke-linecap="round" stroke-linejoin="round"/>
<path d="M276.918 221.803L296.424 225.104C300.092 220.969 303.96 216.035 307.794 210.266C312.262 203.531 315.697 197.129 318.331 191.493C311.795 190.46 305.26 189.426 298.725 188.359C296.324 193.527 293.256 199.296 289.355 205.365C285.154 211.867 280.886 217.335 276.918 221.803Z" fill="white" stroke="black" stroke-width="1.2" stroke-miterlimit="10" stroke-linecap="round" stroke-linejoin="round"/>
<path d="M253.777 232.373L234.538 229.005C238.572 227.171 243.34 224.604 248.342 221.103C253.41 217.535 257.478 213.901 260.613 210.7C267.081 211.767 273.55 212.867 280.019 213.934C276.284 217.735 271.349 222.103 265.047 226.171C261.046 228.772 257.245 230.806 253.777 232.373Z" fill="black" stroke="black" stroke-width="1.2" stroke-miterlimit="10" stroke-linecap="round" stroke-linejoin="round"/>
<path d="M309.795 85.9266L329.468 88.4608C330.701 93.8625 331.769 99.9644 332.502 106.633C333.436 115.436 333.536 123.439 333.236 130.374C326.667 129.44 320.098 128.54 313.529 127.607C313.829 121.138 313.763 113.702 312.963 105.533C312.262 98.2305 311.095 91.6618 309.795 85.9266Z" fill="white" stroke="black" stroke-width="1.2" stroke-miterlimit="10" stroke-linecap="round" stroke-linejoin="round"/>
<path d="M294.59 135.109L314.196 137.91C313.663 143.512 312.696 149.914 310.962 156.916C309.328 163.651 307.327 169.62 305.293 174.688C298.791 173.688 292.256 172.687 285.754 171.654C287.755 166.652 289.722 160.817 291.322 154.182C293.056 147.179 294.023 140.744 294.59 135.109Z" fill="white" stroke="black" stroke-width="1.2" stroke-miterlimit="10" stroke-linecap="round" stroke-linejoin="round"/>
<path d="M272.25 59.7183L275.717 55.717L295.19 58.0844C298.258 62.4858 301.559 68.0209 304.56 74.623C306.961 79.9247 308.661 84.8929 309.895 89.261C303.359 88.4274 296.857 87.5604 290.322 86.7268L272.25 59.7183Z" fill="white" stroke="black" stroke-width="1.2" stroke-miterlimit="10" stroke-linecap="round" stroke-linejoin="round"/>
<path d="M309.795 85.9266L290.322 86.7269C286.954 75.0565 281.953 64.6198 275.684 55.7504L285.22 34.6103C277.585 25.3407 268.748 17.8717 259.045 12.4366L245.374 29.542C236.738 25.4741 227.402 23.3067 217.732 23.2734L213.231 2.60016C208.063 3.06697 202.828 4.06729 197.593 5.60111C192.391 7.13493 187.323 9.10222 182.454 11.5363L181.487 33.3432C172.718 38.3782 164.782 45.147 157.847 53.1162L143.775 44.3467C136.54 53.8498 130.371 64.5865 125.536 76.1568L136.106 90.5948C132.272 101.098 129.704 112.368 128.604 123.972L113.332 130.774C113.066 136.976 113.132 143.278 113.566 149.613C114.033 155.949 114.833 162.084 116 168.019L131.838 168.086C134.606 178.989 138.741 188.926 144.042 197.595L135.806 216.468C142.275 225.871 149.911 233.907 158.48 240.242L170.951 225.338C178.987 230.306 187.856 233.573 197.259 234.807L201.694 256.281C206.862 256.581 212.164 256.381 217.566 255.614C223.001 254.847 228.302 253.546 233.504 251.746L234.504 229.005C244.007 224.771 252.777 218.502 260.579 210.7L276.918 221.803C285.487 212.167 292.856 200.863 298.725 188.392L285.754 171.654C290.289 160.25 293.356 147.913 294.59 135.109L313.529 127.573C313.829 120.571 313.696 113.502 313.063 106.4C312.396 99.3309 311.295 92.462 309.795 85.9266ZM212.664 193.994C184.622 198.996 160.414 174.655 157.78 140.01C155.179 105.566 174.752 72.2556 202.327 65.22C230.836 57.9511 257.145 81.3251 260.246 117.837C263.38 154.582 241.673 188.859 212.664 193.994Z" fill="#C7FA73"/>
<path d="M309.795 85.9266L290.322 86.7269C286.954 75.0565 281.953 64.6198 275.684 55.7504L285.22 34.6103C277.585 25.3407 268.748 17.8717 259.045 12.4366L245.374 29.542C236.738 25.4741 227.402 23.3067 217.732 23.2734L213.231 2.60016C208.063 3.06697 202.828 4.06729 197.593 5.60111C192.391 7.13493 187.323 9.10222 182.454 11.5363L181.487 33.3432C172.718 38.3782 164.782 45.147 157.847 53.1162L143.775 44.3467C136.54 53.8498 130.371 64.5865 125.536 76.1568L136.106 90.5948C132.272 101.098 129.704 112.368 128.604 123.972L113.332 130.774C113.066 136.976 113.132 143.278 113.566 149.613C114.033 155.949 114.833 162.084 116 168.019L131.838 168.086C134.606 178.989 138.741 188.926 144.042 197.595L135.806 216.468C142.275 225.871 151.178 232.373 159.747 238.708L170.951 225.338C178.987 230.306 187.856 233.573 197.259 234.807L201.694 256.281C206.862 256.581 212.164 256.381 217.566 255.614C223.001 254.847 228.302 253.546 233.504 251.746L234.504 229.005C244.007 224.771 252.777 218.502 260.579 210.7L276.918 221.803C285.487 212.167 292.856 200.863 298.725 188.392L285.754 171.654C290.289 160.25 293.356 147.913 294.59 135.109L313.529 127.573C313.829 120.571 313.696 113.502 313.063 106.4C312.396 99.3309 311.295 92.462 309.795 85.9266ZM212.664 193.994C184.622 198.996 160.414 174.655 157.78 140.01C155.179 105.566 174.752 72.2556 202.327 65.22C230.836 57.9511 257.145 81.3251 260.246 117.837C263.38 154.582 241.673 188.859 212.664 193.994Z" stroke="black" stroke-width="1.2" stroke-miterlimit="10" stroke-linecap="round" stroke-linejoin="round"/>
<path d="M181.921 155.615L132.672 154.382L150.244 115.703L199.293 115.036C200.393 115.036 201.127 116.136 200.66 117.137L183.688 154.482C183.388 155.215 182.688 155.649 181.921 155.615Z" fill="black" stroke="black" stroke-width="1.2" stroke-miterlimit="10" stroke-linecap="round" stroke-linejoin="round"/>
<path d="M199.293 114.436C199.993 114.436 200.66 114.802 201.06 115.369C201.46 115.969 201.527 116.736 201.227 117.37L184.255 154.715C183.855 155.615 182.955 156.182 181.988 156.182C181.954 156.182 181.954 156.182 181.921 156.182L132.639 154.949C132.439 154.949 132.238 154.848 132.138 154.648C132.038 154.482 132.005 154.248 132.105 154.082L149.677 115.403C149.777 115.203 149.977 115.036 150.211 115.036L199.293 114.436ZM199.293 113.235C199.293 113.235 199.26 113.235 199.293 113.235L150.177 113.902C149.477 113.902 148.81 114.336 148.544 114.969L130.971 153.648C130.705 154.215 130.771 154.848 131.071 155.382C131.405 155.915 131.972 156.216 132.572 156.249L181.854 157.483H181.954C183.388 157.483 184.722 156.616 185.322 155.315L202.294 117.97C202.761 116.936 202.661 115.736 202.061 114.769C201.46 113.802 200.427 113.235 199.293 113.235ZM151.411 117.537L198.76 116.903L182.021 153.781C182.021 153.781 182.021 153.815 181.954 153.815L135.473 152.648L151.411 117.537Z" fill="#C7FA73"/>
<path d="M181.554 153.581L134.573 152.414L150.344 117.67L198.126 117.103L181.554 153.581Z" stroke="black" stroke-width="1.2" stroke-miterlimit="10" stroke-linecap="round" stroke-linejoin="round"/>
<path d="M176.853 150.614L129.838 149.447L145.643 114.702L193.391 114.136L176.853 150.614Z" fill="#C7FA73" stroke="black" stroke-width="1.2" stroke-miterlimit="10" stroke-linecap="round" stroke-linejoin="round"/>
<path d="M193.391 114.136L198.126 117.103L181.554 153.581L176.853 150.614L193.391 114.136Z" fill="white" stroke="black" stroke-width="1.2" stroke-miterlimit="10" stroke-linecap="round" stroke-linejoin="round"/>
<path d="M129.838 149.447L134.573 152.414L181.554 153.581L176.853 150.614L129.838 149.447Z" fill="white" stroke="black" stroke-width="1.2" stroke-miterlimit="10" stroke-linecap="round" stroke-linejoin="round"/>
<path d="M187.423 133.842L195.425 116.203" stroke="black" stroke-width="1.2" stroke-miterlimit="10" stroke-linecap="round" stroke-linejoin="round"/>
<path d="M184.788 139.61L185.789 137.376" stroke="black" stroke-width="1.2" stroke-miterlimit="10" stroke-linecap="round" stroke-linejoin="round"/>
<path d="M173.852 143.478L192.391 104.166C184.889 104.032 153.945 106.767 150.511 115.069C145.609 125.839 140.741 136.643 135.84 147.413C140.574 146.279 145.876 145.246 151.645 144.545C159.881 143.512 167.35 143.278 173.852 143.478Z" fill="white" stroke="black" stroke-width="1.2" stroke-miterlimit="10" stroke-linecap="round" stroke-linejoin="round"/>
<path d="M150.511 115.069C151.078 108.5 129.238 104.166 120.235 104.166C116.734 117.57 113.199 130.941 109.698 144.345L133.739 152.014L150.511 115.069Z" fill="white"/>
<path d="M141.641 108L123.202 148.613L133.739 151.981L150.511 115.036C150.744 112.235 146.876 109.834 141.641 108Z" fill="#C7FA73"/>
<path d="M150.511 115.069C151.078 108.5 129.238 104.166 120.235 104.166C116.734 117.57 113.199 130.941 109.698 144.345L133.739 152.014L150.511 115.069Z" stroke="black" stroke-width="1.2" stroke-miterlimit="10" stroke-linecap="round" stroke-linejoin="round"/>
<path d="M335.003 51.449L327.5 52.7827" stroke="white" stroke-width="1.2" stroke-miterlimit="10" stroke-linecap="round" stroke-linejoin="round"/>
<path d="M351.275 26.7411L357.977 23.5067" stroke="white" stroke-width="1.2" stroke-miterlimit="10" stroke-linecap="round" stroke-linejoin="round"/>
<path d="M324.566 39.712L346.606 29.0086" stroke="white" stroke-width="1.2" stroke-miterlimit="10" stroke-linecap="round" stroke-linejoin="round"/>
<path d="M330.201 21.9063L319.665 31.3093" stroke="white" stroke-width="1.2" stroke-miterlimit="10" stroke-linecap="round" stroke-linejoin="round"/>
<path d="M159.08 155.615C169.05 159.116 169.25 155.249 169.017 155.215C166.349 154.915 162.782 154.182 159.08 152.181C157.313 151.214 155.979 150.247 155.046 149.48C154.979 149.313 154.812 148.88 154.946 148.346C155.079 147.646 155.579 147.279 155.679 147.179C157.413 146.579 159.147 143.878 158.247 142.778C158.08 142.578 157.813 142.545 157.58 142.645C156.48 143.378 154.846 144.312 152.712 144.912C149.711 145.779 147.11 145.612 145.576 145.412C145.143 145.912 144.709 146.379 144.242 146.879C144.209 147.446 144.209 148.013 144.176 148.613L143.342 157.949L147.843 158.283L149.877 159.517C151.011 160.183 152.211 160.717 153.479 161.117C155.779 161.817 159.714 160.217 160.014 160.117" fill="#C7FA73"/>
<path d="M163.315 158.516C162.181 161.484 155.713 159.45 154.879 158.95L157.747 154.248L165.582 157.083" fill="#C7FA73"/>
<path d="M156.646 157.283C157.547 157.816 164.349 160.084 165.582 157.083Z" fill="#C7FA73"/>
<path d="M159.08 155.615C169.05 159.117 169.25 155.249 169.017 155.215C166.349 154.915 162.782 154.182 159.08 152.181C157.313 151.214 155.979 150.247 155.046 149.48C154.979 149.313 154.812 148.88 154.946 148.346C155.079 147.646 155.579 147.279 155.679 147.179C157.413 146.579 159.18 143.778 158.413 142.578C157.88 141.778 155.146 144.779 151.611 145.145C147.777 145.512 144.476 145.512 143.009 145.045C143.409 146.246 143.809 147.446 144.209 148.647L143.375 157.983L147.877 158.316L149.911 159.55C151.044 160.217 152.245 160.75 153.512 161.151C155.813 161.851 159.747 160.25 160.047 160.15" stroke="black" stroke-width="1.2" stroke-miterlimit="10" stroke-linecap="round" stroke-linejoin="round"/>
<path d="M163.315 158.516C162.181 161.484 155.713 159.45 154.879 158.95" stroke="black" stroke-width="1.2" stroke-miterlimit="10" stroke-linecap="round" stroke-linejoin="round"/>
<path d="M156.646 157.283C157.547 157.816 164.349 160.084 165.582 157.083" stroke="black" stroke-width="1.2" stroke-miterlimit="10" stroke-linecap="round" stroke-linejoin="round"/>
<path d="M103.529 77.3906C102.629 79.758 101.329 82.5589 99.4614 85.5599C97.3274 88.961 95.06 91.6285 93.0927 93.5958C99.3947 95.5964 105.73 97.597 112.032 99.5977C112.165 96.6968 112.499 93.5624 113.032 90.228C113.299 88.6275 113.599 87.127 113.899 85.6599C114.233 82.4255 114.566 79.2245 114.9 75.9902L103.529 77.3906Z" fill="#C7FA73"/>
<path d="M103.329 76.5572C102.629 78.9914 101.495 82.159 99.4614 85.5601C97.3274 89.1612 94.96 91.7954 93.0927 93.596C99.3947 95.5966 105.73 97.5973 112.032 99.5979C112.199 96.4636 112.432 93.2625 112.732 89.9615C112.866 88.3943 113.032 86.8272 113.232 85.2934C113.799 82.1924 114.366 79.0914 114.933 76.0237C111.065 76.2238 107.197 76.3905 103.329 76.5572Z" stroke="black" stroke-width="1.2" stroke-miterlimit="10" stroke-linecap="round" stroke-linejoin="round"/>
<path d="M99.7948 84.4596C101.429 84.5596 103.363 84.8264 105.497 85.3932C109.698 86.5269 112.832 88.3942 114.9 89.8947C115.3 92.7289 115.7 95.5298 116.1 98.364C108.864 96.7635 101.629 95.1963 94.3931 93.5958C96.227 90.5282 97.9943 87.4939 99.7948 84.4596Z" fill="white" stroke="black" stroke-width="1.2" stroke-miterlimit="10" stroke-linecap="round" stroke-linejoin="round"/>
<path d="M120.301 72.5224C122.869 72.489 124.836 72.8892 124.903 73.4894C125.003 74.1229 123.202 75.0899 120.601 75.7901" fill="#C7FA73"/>
<path d="M120.301 72.5224C122.869 72.489 124.836 72.8892 124.903 73.4894C125.003 74.1229 123.202 75.0899 120.601 75.7901" stroke="black" stroke-width="1.2" stroke-miterlimit="10" stroke-linecap="round" stroke-linejoin="round"/>
<path d="M53.1467 258.581C52.2464 260.549 51.2128 263.35 50.7126 266.817C50.3792 269.251 50.4125 271.385 50.5459 273.119C53.3801 279.355 86.4573 273.119 89.2248 269.585C89.2248 260.915 80.0219 259.082 79.3217 259.015C70.5856 258.848 61.8495 258.715 53.1467 258.581Z" fill="white"/>
<path d="M50.5459 273.119C53.3801 279.355 86.4573 273.119 89.2248 269.585C89.2248 268.451 89.0581 267.451 88.7914 266.517C83.3896 270.018 54.7806 275.353 50.4792 269.552C50.4125 270.885 50.4792 272.086 50.5459 273.119Z" fill="#C7FA73"/>
<path d="M53.1467 258.581C52.2464 260.549 51.2128 263.35 50.7126 266.817C50.3792 269.251 50.4125 271.385 50.5459 273.119C53.3801 279.355 86.4573 273.119 89.2248 269.585C89.2248 260.915 80.0219 259.082 79.3217 259.015C70.5856 258.848 61.8495 258.715 53.1467 258.581Z" stroke="black" stroke-width="1.2" stroke-miterlimit="10" stroke-linecap="round" stroke-linejoin="round"/>
<path d="M134.206 283.156L134.806 292.159C134.906 293.626 135.906 294.86 137.307 295.26C149.744 298.728 172.218 289.158 177.686 284.223C178.286 283.656 178.653 282.889 178.653 282.056V279.321C176.753 274.953 165.582 272.619 162.915 272.086C153.345 275.787 143.775 279.488 134.206 283.156Z" fill="white"/>
<path d="M134.773 291.659L134.806 292.159C134.906 293.626 135.906 294.86 137.307 295.26C149.744 298.727 172.218 289.158 177.686 284.223C178.286 283.656 178.653 282.889 178.653 282.055V279.321C173.285 284.756 147.677 295.36 134.773 291.659Z" fill="#C7FA73"/>
<path d="M164.215 278.354C164.349 277.688 164.415 276.954 164.482 276.12C164.549 274.653 164.415 273.386 164.215 272.353" stroke="black" stroke-width="1.2" stroke-miterlimit="10" stroke-linecap="round" stroke-linejoin="round"/>
<path d="M167.283 277.221C167.416 276.687 167.55 275.92 167.55 274.987C167.516 274.22 167.383 273.586 167.25 273.086" stroke="black" stroke-width="1.2" stroke-miterlimit="10" stroke-linecap="round" stroke-linejoin="round"/>
<path d="M134.206 283.156L134.806 292.159C134.906 293.626 135.906 294.86 137.307 295.26C149.744 298.728 172.218 289.158 177.686 284.223C178.286 283.656 178.653 282.889 178.653 282.056V279.321C176.753 274.953 165.582 272.619 162.915 272.086C153.345 275.787 143.775 279.488 134.206 283.156Z" stroke="black" stroke-width="1.2" stroke-miterlimit="10" stroke-linecap="round" stroke-linejoin="round"/>
<path d="M102.696 176.589C126.737 204.031 126.97 269.085 129.638 285.023C132.405 285.59 140.141 287.291 147.91 284.323C156.813 280.922 161.448 274.42 162.915 272.119C160.614 255.914 156.846 237.208 150.678 216.868C143.842 194.294 135.64 174.955 127.737 159.083L123.036 154.882L104.663 151.981L102.696 176.589Z" fill="black" stroke="black" stroke-width="1.2" stroke-miterlimit="10" stroke-linecap="round" stroke-linejoin="round"/>
<path d="M162.882 262.816C161.214 265.55 158.614 269.151 154.646 272.619C151.878 275.053 149.144 276.754 146.876 277.954" stroke="#C7FA73" stroke-width="1.2" stroke-miterlimit="10" stroke-linecap="round" stroke-linejoin="round"/>
<path d="M91.1921 154.915L86.8241 157.416C86.3239 160.85 86.8908 172.021 84.9902 179.556C72.3195 230.539 60.449 233.173 54.1137 248.045C52.4465 251.913 51.4795 255.514 51.4795 258.982C53.2468 260.149 61.3493 265.25 71.0857 262.916C74.7202 262.049 77.4878 260.382 79.3217 258.982C80.422 256.814 80.322 253.113 81.4224 250.912C86.1572 241.376 101.962 214.667 110.265 187.726C111.699 182.257 113.933 178.356 115.333 172.888L109.798 154.882H91.1921V154.915Z" fill="black" stroke="black" stroke-width="1.2" stroke-miterlimit="10" stroke-linecap="round" stroke-linejoin="round"/>
<path d="M67.8514 255.147C70.0854 255.08 78.6882 255.147 82.1893 251.779" stroke="#C7FA73" stroke-width="1.2" stroke-miterlimit="10" stroke-linecap="round" stroke-linejoin="round"/>
<path d="M102.696 176.589C104.33 179.09 105.997 181.857 107.597 184.925C109.998 189.526 111.799 193.894 113.166 197.796" stroke="#C7FA73" stroke-width="1.2" stroke-miterlimit="10" stroke-linecap="round" stroke-linejoin="round"/>
<path d="M76.5208 82.6589C76.5208 81.5919 75.3537 76.3236 73.7866 76.7237C72.8863 76.9571 73.9866 80.2582 73.9866 83.0257" fill="#C7FA73"/>
<path d="M79.155 82.2587C79.155 81.1917 77.9879 75.9234 76.4208 76.3235C75.5205 76.5569 76.6208 79.858 76.6208 82.6255" fill="#C7FA73"/>
<path d="M79.155 82.2588C79.4551 79.4579 79.155 76.0568 80.2553 76.2903C82.556 76.7904 80.3887 87.7272 81.5557 88.1273C82.4894 88.5608 85.2236 84.8263 86.1572 85.6266C86.8908 86.2601 86.1238 88.0607 83.1896 92.162C82.4227 93.1956 78.4881 97.497 77.5545 98.3306L75.2537 99.7644L67.5513 98.3973C67.9181 95.7964 68.4516 92.9622 69.2852 89.8946C69.8187 87.9273 70.3855 86.1267 71.0191 84.4595C71.8193 81.3919 70.7856 78.0908 71.9193 77.7907C73.1864 77.4239 73.5198 79.2245 73.9867 83.0257" fill="#C7FA73"/>
<path d="M76.5208 82.6589C76.5208 81.5919 75.3537 76.3236 73.7866 76.7237C72.8863 76.9571 73.9866 80.2582 73.9866 83.0257" stroke="black" stroke-width="1.2" stroke-miterlimit="10" stroke-linecap="round" stroke-linejoin="round"/>
<path d="M79.155 82.2587C79.155 81.1917 77.9879 75.9234 76.4208 76.3235C75.5205 76.5569 76.6208 79.858 76.6208 82.6255" stroke="black" stroke-width="1.2" stroke-miterlimit="10" stroke-linecap="round" stroke-linejoin="round"/>
<path d="M79.155 82.2588C79.4551 79.4579 79.155 76.0568 80.2553 76.2903C82.556 76.7904 80.3887 87.7272 81.5557 88.1273C82.4894 88.5608 85.2236 84.8263 86.1572 85.6266C86.8908 86.2601 86.1238 88.0607 83.1896 92.162C82.4227 93.1956 78.4881 97.497 77.5545 98.3306L75.2537 99.7644L67.5513 98.3973C67.9181 95.7964 68.4516 92.9622 69.2852 89.8946C69.8187 87.9273 70.3855 86.1267 71.0191 84.4595C71.8193 81.3919 70.7856 78.0908 71.9193 77.7907C73.1864 77.4239 73.5198 79.2245 73.9867 83.0257" stroke="black" stroke-width="1.2" stroke-miterlimit="10" stroke-linecap="round" stroke-linejoin="round"/>
<path d="M68.0181 101.965C67.9181 101.798 67.5846 98.4306 67.5846 98.4306C67.718 97.3969 67.9514 96.3299 68.0848 95.2963C68.9184 94.8294 70.3522 94.1626 72.3861 94.0959C76.054 93.9959 78.5548 96.1632 79.155 96.6967C78.6881 97.497 78.2213 98.2639 77.7545 99.0641L68.0181 101.965Z" fill="white" stroke="black" stroke-width="1.2" stroke-miterlimit="10" stroke-linecap="round" stroke-linejoin="round"/>
<path d="M77.5545 98.331C78.5548 100.965 76.9876 106.8 76.9876 106.8C78.3881 107.434 90.5586 90.9954 98.9946 90.9954C95.1267 100.198 91.2588 109.401 87.3909 118.604C79.9552 126.64 73.4198 128.341 68.4182 126.54C62.1162 124.239 61.2159 102.299 68.6516 98.131C71.8527 96.1303 75.7539 96.1637 77.5545 98.331Z" fill="white"/>
<path d="M87.0575 107.767C85.657 114.769 80.6221 149.513 86.7907 157.416C95.16 168.119 123.169 161.417 126.703 159.75C136.54 155.749 116.9 116.136 111.999 94.3293C110.398 93.5624 108.464 92.7955 106.197 92.1619C103.429 91.395 100.962 91.0949 98.9612 90.9615C96.994 92.4954 94.4932 94.7961 92.1258 97.9971C89.4582 101.698 87.9244 105.199 87.0575 107.767Z" fill="white"/>
<path d="M127.37 141.811L109.164 121.471C109.398 122.472 107.497 125.639 107.497 125.639C107.364 128.04 106.264 150.414 119.835 158.216C121.302 159.05 123.069 159.817 125.203 160.284C125.87 160.084 126.37 159.883 126.703 159.75C130.605 158.15 129.938 151.114 127.37 141.811Z" fill="#C7FA73"/>
<path d="M106.23 92.1619C115.066 94.6294 119.301 98.7974 121.502 103.766C123.869 109.101 123.736 124.472 129.404 133.542C134.706 142.011 146.576 143.345 147.11 147.846C147.377 150.047 147.11 152.714 147.11 152.714C146.943 154.815 146.643 156.582 146.21 157.749C145.076 160.917 125.27 159.417 114.8 144.579C106.097 132.241 106.93 118.737 107.331 115.336" fill="white"/>
<path d="M106.23 92.1619C115.066 94.6294 119.301 98.7974 121.502 103.766C123.869 109.101 123.736 124.472 129.404 133.542C134.706 142.011 146.576 143.345 147.11 147.846C147.377 150.047 147.11 152.714 147.11 152.714C146.943 154.815 146.643 156.582 146.21 157.749C145.076 160.917 125.27 159.417 114.8 144.579C106.097 132.241 106.93 118.737 107.331 115.336" stroke="black" stroke-width="1.2" stroke-miterlimit="10" stroke-linecap="round" stroke-linejoin="round"/>
<path d="M87.0575 107.767C85.657 114.769 80.6221 149.514 86.7907 157.416C95.16 168.119 123.169 161.417 126.703 159.75C128.07 159.183 128.871 157.95 129.204 156.182" stroke="black" stroke-width="1.2" stroke-miterlimit="10" stroke-linecap="round" stroke-linejoin="round"/>
<path d="M112.032 94.2959C110.432 93.529 108.498 92.7621 106.23 92.1286C103.463 91.3617 100.995 91.0616 98.9946 90.9282" stroke="black" stroke-width="1.2" stroke-miterlimit="10" stroke-linecap="round" stroke-linejoin="round"/>
<path d="M74.4535 107.767C75.0537 107.667 75.8539 107.433 76.7209 107C77.5211 106.6 78.1546 106.166 78.5881 105.766" stroke="black" stroke-width="1.2" stroke-miterlimit="10" stroke-linecap="round" stroke-linejoin="round"/>
<path d="M84.9908 120.871C79.6891 126.64 72.3868 128.374 68.2521 126.24C60.8164 122.405 63.1838 101.265 67.7186 98.5642C70.9196 96.5969 75.9546 96.8637 77.7551 99.031C78.7555 101.665 76.9882 106.767 76.9882 106.767C78.3887 107.4 90.5592 90.9618 98.9952 90.9618" stroke="black" stroke-width="1.2" stroke-miterlimit="10" stroke-linecap="round" stroke-linejoin="round"/>
<path d="M117 65.3534C119.168 67.8208 125.57 83.0257 120.401 86.3267C119.601 86.8269 115.867 87.2937 112.632 84.9263L104.696 78.4576L108.398 68.0543L117 65.3534Z" fill="#C7FA73"/>
<path d="M117 65.3534L114.966 65.9869C117.034 70.5884 122.735 83.7259 120.401 86.2934C125.57 83.0257 119.168 67.8208 117 65.3534Z" fill="white"/>
<path d="M117 65.3534C119.168 67.8208 125.57 83.0257 120.401 86.3267C119.601 86.8269 115.867 87.2937 112.632 84.9263" stroke="black" stroke-width="1.2" stroke-miterlimit="10" stroke-linecap="round" stroke-linejoin="round"/>
<path d="M114.933 72.1222C114.399 70.9219 113.199 70.5217 112.065 71.222C111.132 71.8221 110.365 75.3233 111.899 77.7574C107.831 81.792 102.696 80.3582 102.129 80.1248C101.862 79.7913 95.16 73.4893 99.0279 63.853C101.595 57.3842 109.731 54.5167 117.134 56.0838C115.9 57.8177 115.833 58.6513 116.167 59.0181C116.6 59.5182 119.901 58.6513 121.835 55.617C122.169 56.2172 123.269 58.5513 122.802 61.4522C122.202 65.2534 118.134 66.6205 117.967 66.6538C114.399 67.5541 115.667 71.7888 114.933 72.1222Z" fill="black" stroke="black" stroke-width="1.2" stroke-miterlimit="10" stroke-linecap="round" stroke-linejoin="round"/>
<path d="M194.525 238.108C191.057 237.908 187.223 237.875 183.088 238.108C175.886 238.542 169.55 239.709 164.315 241.043C161.781 239.509 158.38 237.875 154.179 236.808C144.242 234.24 135.773 236.441 131.738 237.775" stroke="black" stroke-width="1.2" stroke-miterlimit="10" stroke-linecap="round" stroke-linejoin="round"/>
<path d="M215.665 258.848C219.966 256.848 227.202 254.147 236.472 253.847C242.674 253.647 247.909 254.613 251.676 255.614C255.611 253.446 263.147 249.979 273.05 249.912" stroke="black" stroke-width="1.2" stroke-miterlimit="10" stroke-linecap="round" stroke-linejoin="round"/>
<path d="M166.383 120.371C165.849 120.404 165.282 120.438 164.749 120.471C164.882 119.771 164.849 119.137 164.649 118.604C165.182 118.17 165.682 117.703 166.216 117.27C165.916 116.703 165.449 116.27 164.815 115.936C164.215 116.303 163.615 116.67 163.048 117.036C162.448 116.803 161.748 116.703 160.914 116.736C161.048 116.303 161.148 115.869 161.281 115.436C160.814 115.503 160.347 115.569 159.814 115.703C159.314 115.836 158.814 115.969 158.28 116.17C157.98 116.636 157.713 117.137 157.413 117.603C156.48 118.003 155.546 118.504 154.646 119.07C154.345 118.904 154.045 118.77 153.712 118.604C152.745 119.304 151.811 120.071 150.944 120.904C151.078 121.171 151.211 121.471 151.378 121.738C150.678 122.472 150.044 123.272 149.544 124.039C149.01 124.239 148.477 124.472 147.943 124.706C147.71 125.139 147.477 125.539 147.31 125.973C147.143 126.406 146.976 126.773 146.876 127.173C147.343 127.106 147.81 127.04 148.277 126.94C148.144 127.607 148.144 128.207 148.31 128.707C147.843 129.174 147.377 129.607 146.943 130.074C147.177 130.607 147.577 131.008 148.11 131.308C148.644 130.941 149.177 130.541 149.711 130.174C150.244 130.374 150.878 130.474 151.645 130.441C151.511 130.874 151.411 131.308 151.278 131.741C151.711 131.708 152.178 131.608 152.645 131.508C153.145 131.408 153.645 131.241 154.145 131.074C154.446 130.607 154.712 130.107 155.012 129.64C155.979 129.274 156.913 128.807 157.847 128.273C158.18 128.473 158.513 128.64 158.814 128.84C159.881 128.173 160.881 127.44 161.815 126.64C161.648 126.339 161.481 126.006 161.314 125.706C162.081 124.972 162.782 124.205 163.348 123.405C163.949 123.238 164.582 123.038 165.182 122.872C165.449 122.438 165.682 122.005 165.882 121.605C166.116 121.171 166.249 120.771 166.383 120.371ZM154.379 127.673C151.778 128.273 150.544 127.006 151.511 124.772C152.512 122.538 155.413 120.137 158.047 119.504C160.748 118.87 162.148 120.237 161.081 122.505C160.047 124.772 157.013 127.04 154.379 127.673Z" fill="black"/>
<path d="M172.518 114.969C176.286 114.369 180.087 113.936 183.855 113.635" stroke="black" stroke-width="1.2" stroke-miterlimit="10" stroke-linecap="round" stroke-linejoin="round"/>
<path d="M169.45 121.371C171.784 121.038 174.118 120.738 176.419 120.471" stroke="black" stroke-width="1.2" stroke-miterlimit="10" stroke-linecap="round" stroke-linejoin="round"/>
<path d="M170.551 133.742C168.217 133.975 165.916 134.275 163.582 134.642L156.113 128.373" stroke="black" stroke-width="1.2" stroke-miterlimit="10" stroke-linecap="round" stroke-linejoin="round"/>
<path d="M157.246 41.7125C156.946 39.1451 156.079 37.1444 154.946 36.4776C156.079 35.8107 156.946 33.81 157.246 31.2426C157.547 33.81 158.413 35.8107 159.547 36.4776C158.413 37.1444 157.547 39.1451 157.246 41.7125Z" fill="white" stroke="white" stroke-width="1.2" stroke-miterlimit="10" stroke-linecap="round" stroke-linejoin="round"/>
<path d="M142.675 66.9873C141.808 59.4182 139.174 53.483 135.873 51.5157C139.207 49.5484 141.808 43.6132 142.675 36.0441C143.542 43.6132 146.176 49.5484 149.477 51.5157C146.176 53.483 143.542 59.4182 142.675 66.9873Z" fill="white" stroke="white" stroke-width="1.2" stroke-miterlimit="10" stroke-linecap="round" stroke-linejoin="round"/>
<path d="M143.275 158.516C143.742 156.916 144.209 154.982 144.442 152.781C144.776 149.714 144.642 147.046 144.376 144.945" stroke="black" stroke-width="1.2" stroke-miterlimit="10" stroke-linecap="round" stroke-linejoin="round"/>
</svg>
